<?xml version="1.0" encoding="UTF-8" standalone="no"?>
<!-- Created with Inkscape (http://www.inkscape.org/) -->

<svg
   width="9.4488201in"
   height="5.1181102in"
   viewBox="0 0 240.00003 130"
   version="1.1"
   id="svg1"
   xml:space="preserve"
   xmlns="http://www.w3.org/2000/svg"
   xmlns:svg="http://www.w3.org/2000/svg"><defs
     id="defs1" /><g
     id="layer5"><rect
       id="rect3093"
       style="fill:#dfcbdf;fill-opacity:1;stroke-width:0.36145"
       height="186.57712"
       width="273.47342"
       y="-33.102177"
       x="-18.907806" /><rect
       id="rect3881"
       style="fill:#df3ddf;fill-opacity:1;stroke-width:0.686756"
       height="186.94218"
       width="0.73023838"
       y="-33.467239"
       x="36.043327" /><rect
       id="rect3893"
       style="fill:#df3ddf;fill-opacity:1;stroke-width:0.686756"
       height="186.57712"
       width="0.73023838"
       y="-33.102177"
       x="62.147282" /><rect
       id="rect3895"
       style="fill:#df3ddf;fill-opacity:1;stroke-width:0.686756"
       height="186.21205"
       width="0.73023838"
       y="-32.737114"
       x="88.254852" /><rect
       id="rect3897"
       style="fill:#df3ddf;fill-opacity:1;stroke-width:0.686756"
       height="186.21205"
       width="0.73023838"
       y="-33.102177"
       x="114.36241" /><rect
       id="rect3903"
       style="fill:#df3ddf;fill-opacity:1;stroke-width:0.686756"
       height="186.94218"
       width="0.73023838"
       y="-33.102177"
       x="140.46637" /><rect
       id="rect3905"
       style="fill:#df3ddf;fill-opacity:1;stroke-width:0.686756"
       height="186.21205"
       width="0.73023838"
       y="-33.102177"
       x="166.57394" /><rect
       id="rect3907"
       style="fill:#df3ddf;fill-opacity:1;stroke-width:0.686756"
       height="187.6723"
       width="0.73023838"
       y="-33.467239"
       x="192.67789" /><rect
       id="rect3913"
       style="fill:#df3ddf;fill-opacity:1;stroke-width:0.686756"
       height="186.21205"
       width="0.73023838"
       y="-32.006981"
       x="218.78546" /><rect
       id="rect3915"
       style="fill:#df3ddf;fill-opacity:1;stroke-width:0.686756"
       transform="rotate(90)"
       height="271.28665"
       width="0.73023838"
       y="-252.92447"
       x="6.1477284" /><rect
       id="rect3917"
       style="fill:#df3ddf;fill-opacity:1;stroke-width:0.461818"
       height="125.22079"
       width="0.73659998"
       y="-32.737114"
       x="9.9368448" /><rect
       id="rect3919"
       style="fill:#df3ddf;fill-opacity:1;stroke-width:0.686756"
       transform="rotate(90)"
       height="270.55652"
       width="0.73023838"
       y="-254.5799"
       x="35.515579" /><rect
       id="rect3921"
       style="fill:#df3ddf;fill-opacity:1;stroke-width:0.686756"
       transform="rotate(90)"
       height="271.28665"
       width="0.73023838"
       y="-254.79315"
       x="64.88343" /><rect
       id="rect3923"
       style="fill:#df3ddf;fill-opacity:1;stroke-width:0.686756"
       transform="rotate(90)"
       height="271.6517"
       width="0.73023838"
       y="-253.86784"
       x="94.251289" /><rect
       id="rect3925"
       style="fill:#df3ddf;fill-opacity:1;stroke-width:0.686756"
       transform="rotate(90)"
       height="273.11197"
       width="0.73023838"
       y="-254.29797"
       x="123.61914" /><path
       id="path3089"
       style="fill:#df83df;fill-opacity:1;stroke-width:0.36145"
       d="m 14.924861,12.892396 c 0.02328,-0.0093 0.03492,-0.01804 0.03492,-0.02447 0,-0.04074 -0.0163,-0.01804 -0.03492,0.02447 z m 59.003175,68.899688 c 0,0 -1.111641,-0.231642 -1.159967,-0.370739 -0.04598,-0.138515 -1.947423,-1.807759 -1.991086,-1.761204 -0.04947,0.04539 -0.790962,-0.744986 -0.884072,-0.51044 -0.0908,0.231642 -1.52955,0.231642 -1.52955,0.231642 l -1.530128,-0.373667 c 0,0 -0.647213,0.466777 -0.509284,0.27879 0.139108,-0.185084 0.04598,-1.297318 0,-1.110484 -0.04597,0.183339 -2.319355,-0.974868 -2.319355,-0.974868 l -0.789805,0.695503 v -0.88118 l -1.202438,-0.740901 0.140268,-0.97429 -0.560501,-0.463886 c 0,0 -0.09021,0.138526 -0.136773,0.04657 -0.04598,-0.09196 -0.371318,-1.946844 -0.371318,-1.946844 L 59.32051,71.49791 57.189724,71.40479 55.241108,70.335619 54.823814,69.363643 c 0,0 -1.113412,-0.508091 -1.113412,-0.647792 0,-0.138522 -0.321276,-0.04539 -0.416717,-0.0937 -0.09021,-0.04482 -0.04365,-0.507513 -0.04365,-0.507513 l -0.513911,-0.420222 -0.183335,-0.124549 -0.453403,-0.137354 -0.277619,-0.38762 c 0,0 1.008627,-0.450476 0.904457,-0.414403 -0.101857,0.0326 -2.258812,0.345138 -2.258812,0.345138 l -0.208362,0.416138 -1.009206,-0.520344 -1.703588,-0.105341 c 0,0 -1.219317,-0.485428 -1.184401,-0.623936 0.03665,-0.139682 -0.3818,-0.661165 -0.3818,-0.661165 0,0 -0.278209,0.661165 -0.348048,0.730419 -0.06868,0.06926 -0.937061,0.799673 -0.937061,0.799673 l 0.06693,1.114569 -0.590176,-0.628599 0.418487,-0.591333 v -0.833432 c 0,-0.106516 0.521501,-0.348048 0.521501,-0.348048 l -0.208944,-0.450476 c 0,0 -0.624514,0.173442 -0.624514,0.278205 0,0.103599 -0.834625,0.590176 -0.834625,0.590176 l -1.00982,0.3818 h -0.451633 c 0,0 -0.451054,0.728685 -0.55873,0.765336 -0.103017,0.03549 -0.06577,0.697238 -0.06577,0.697238 0,0 -1.115726,1.249028 -1.185558,1.110484 -0.06927,-0.138519 -1.249028,-1.110484 -1.249028,-1.110484 l -1.393934,0.171118 -0.798516,0.419065 -0.97429,-0.661165 -0.764179,-1.182088 0.07159,-1.390427 0.416138,-1.532478 0.173442,-1.006314 -1.04358,-0.767107 c 0,0 -2.120883,0.174028 -2.120883,0.06984 0,-0.102436 -1.149485,0.03665 -1.113412,-0.06984 0.03322,-0.103013 0.417294,-0.7636 0.417294,-0.869541 0,-0.104766 0.279369,-0.903301 0.279369,-0.903301 l 0.452247,-0.903301 0.590755,-1.735576 0.346302,-0.594225 -1.737312,-0.103603 -1.044158,0.416717 -0.590755,1.740239 -2.956665,0.799095 -0.72984,-0.555839 c 0,0 -0.06984,0.313125 -0.0326,0.139108 0.0326,-0.173449 -0.905036,-1.392777 -0.905036,-1.392777 l -0.452825,-1.701817 c 0,0 1.183822,-3.514817 1.146593,-3.443214 -0.03434,0.0681 0.03725,-1.289185 0.03725,-1.289185 l 3.72041,-2.432851 1.424187,0.208362 0.347462,0.347466 0.871277,-0.141432 0.868963,-0.867806 1.111062,0.139686 1.076761,-0.20778 0.662322,0.731033 0.971398,-0.3818 0.522079,0.557574 0.31546,0.345138 v 0.593068 l -0.243285,0.55526 0.243285,1.252498 0.694924,0.974868 0.451633,0.172861 0.556417,-1.52955 -0.105345,-1.425959 -0.242703,-1.150641 V 48.54584 l 1.427115,-1.734998 1.840939,-1.323524 1.460875,-0.834625 1.286835,-1.390428 -0.06926,-1.321752 0.559308,-0.10302 0.551176,-1.18151 0.556995,0.06519 1.080231,-1.354933 1.806023,-0.623936 1.115147,-0.207783 0.348048,-0.382379 -0.417294,-0.347462 0.868385,-1.289186 2.748288,-1.077881 1.670407,-0.486585 -1.358439,0.87012 0.278209,0.65943 1.008627,-0.277623 0.730997,-0.451054 1.911929,-0.520922 c 0,0 0.45456,-0.766528 0.382957,-0.59249 -0.06693,0.173439 0.974868,-0.174024 0.974868,-0.174024 l -0.207776,-0.418487 0.06926,-0.555839 -0.55526,0.208948 -0.838674,0.903879 -1.354355,-0.06635 -0.624514,-0.941108 0.590755,-0.799709 c 0,0 0.590176,-1.182666 0.555838,-1.111063 -0.03549,0.06752 -0.937638,-0.279365 -0.937638,-0.279365 l -1.357283,0.484814 c -0.138519,0 -1.42538,0.765949 -1.39162,0.662321 0.03549,-0.104184 -0.661166,0.382379 -0.661166,0.382379 l 1.772843,-1.423609 0.731612,-0.105927 0.835203,-0.766528 h 3.999088 l 1.356668,-0.278786 1.807181,-0.972555 0.141435,0.174609 -0.76595,0.728684 -0.939373,0.97429 -0.906193,0.971977 -0.451054,0.592489 1.425958,0.06926 c 0,0 1.111641,0.02794 1.217583,0 0.1391,-0.03495 0.173445,0.485971 0.173445,0.485971 l 0.590176,-0.416717 0.314874,0.79971 1.044159,-0.79971 -0.314874,-0.904457 0.27995,-0.83636 -1.217582,0.03725 v -0.452825 c 0,0 -0.451054,-0.521501 -0.486584,-0.452826 -0.03611,0.07043 0.694924,-0.589598 0.65943,-0.520308 -0.03434,0.06984 -0.314289,-0.346884 -0.314289,-0.346884 l 0.837517,-1.046471 -0.416716,-1.180353 -0.141432,-0.589598 -1.078496,-0.522079 -0.3818,-0.522657 -0.48832,-0.3818 0.38415,-0.905036 -0.174602,-0.660009 c 0,0 -0.311379,-2.156955 -0.346302,-2.08828 -0.03665,0.07042 -1.463188,1.183823 -1.463188,1.183823 l -1.457947,0.731612 -0.767684,-0.661165 0.07217,-0.871855 0.660586,-0.625093 -1.08023,-0.347458 -0.06926,-0.278209 c 0,0 -0.973133,-0.973711 -1.041808,-0.905036 -0.06984,0.07217 -0.313125,0.31546 -0.313125,0.31546 l -2.296078,-0.211857 -0.799131,1.392199 -0.173438,0.729841 c 0,0 -1.257739,1.258317 -1.411392,1.355511 0.09196,-0.02675 0.680395,0.55873 0.680395,0.55873 l -0.523236,1.249607 -1.981761,1.14775 -0.971976,0.14085 c 0,0 -0.59249,2.157534 -0.557574,2.295499 0.03434,0.140268 -0.799094,0.520344 -0.799094,0.520344 l -0.591333,0.417873 -0.244446,-0.7636 c 0,0 -0.266566,-0.584357 -0.372511,-0.73219 0.155406,0.06402 0.719974,0.139104 0.719974,0.139104 l 0.10593,-0.48832 -0.557574,0.03611 0.244449,-0.800287 0.521501,-0.867807 -1.809493,-0.139682 -0.413247,-0.487741 -0.90677,-0.139687 -0.07159,-0.383535 -0.625671,-0.381221 -0.765949,-0.34747 -0.832855,0.104181 -0.03549,-0.728684 0.20778,-0.695503 -0.832854,-0.138519 c 0,0 1.460874,-1.496947 1.425958,-1.427115 -0.03725,0.06927 4.101378,-2.053942 4.101378,-2.053942 l 0.48832,-0.519151 0.798516,-0.07159 1.738505,-0.797938 1.321752,-0.903879 0.139101,0.06984 -1.006315,0.938217 -0.278201,0.34572 -0.800287,0.383535 0.730997,0.103599 -0.106505,0.419065 0.801444,-0.139686 0.798517,-0.661165 0.628562,0.210689 0.278787,0.310212 0.86777,-0.03492 -0.03488,-0.660009 -1.354355,-0.972555 -0.31662,-0.312546 -0.137351,-0.34863 0.58902,0.07217 0.490633,0.416716 0.520308,-0.523814 1.043001,-0.136776 1.042965,-0.733347 -0.06752,-0.451054 0.798516,-0.764179 -0.523235,-0.55526 1.392199,-0.03495 1.21469,0.03495 c 0,0 0.593068,-0.277626 0.697852,-0.104184 0.104763,0.173442 1.00805,0.832854 1.00805,0.832854 l -0.347466,0.313128 -1.427694,0.17577 -0.347465,0.693189 1.045893,0.14085 0.797938,-0.834047 0.868384,-0.07043 0.139687,0.832855 c 0,0 -0.972555,0.557573 -1.111063,0.591911 -0.139101,0.03725 -0.731612,0.312546 -0.731612,0.312546 l -0.03492,0.627984 -0.938795,0.103021 -0.973133,-0.172278 -0.451055,0.03372 -0.731611,0.590176 0.591333,0.521501 c 0,0 0.870119,-0.347466 1.008627,-0.451054 0.138519,-0.103603 0.590755,-0.313714 0.694346,-0.138526 0.104181,0.173442 0.693768,0.660009 0.693768,0.660009 l 0.490633,0.941723 0.451633,0.137936 1.389271,0.451633 c 0,0 0.974868,0.243863 0.974868,0.311961 0,0.06984 -0.101853,-0.590177 -0.101853,-0.590177 l -0.735082,-0.87012 c 0,0 -0.03199,-0.243285 0.208362,-0.175766 0.246194,0.06926 0.838131,0.589598 0.838131,0.589598 0.102431,0.03492 0.799095,0.455717 0.799095,0.455717 l 0.277623,-0.76595 0.625092,-0.382956 -0.241536,-0.452247 -0.348633,-0.381222 -0.3818,-0.452247 0.03372,-0.520922 c 0,0 0.104766,-0.07217 0.208944,-0.139097 0.103602,-0.06868 0.416716,-0.312554 0.487163,-0.175777 0.06809,0.139104 0.766528,1.044158 0.766528,1.044158 l 0.657695,0.137944 0.314874,-0.520344 c 0,0 0.867806,-0.105341 0.867806,-0.06984 0,0.03495 0.06984,-0.416716 0.06984,-0.416716 l 0.800866,-0.207777 -1.14775,-1.011555 -0.625092,-0.313703 -0.488898,0.139683 -0.448741,-0.521501 0.485428,-0.450476 0.210108,-0.627405 -0.556995,-0.555839 -0.869542,-0.173445 -0.210689,-0.453982 c 0,0 -0.728684,-0.103603 -0.833469,-0.0355 -0.105345,0.07217 -0.626249,-0.624514 -0.626249,-0.624514 L 62.01196,11.511226 c -0.07043,-0.0355 -0.313131,-0.280529 -0.451632,-0.243867 -0.141436,0.03495 -1.599997,0.06926 -1.599997,0.06926 l -0.347462,0.104766 -0.451054,-0.349215 -1.810072,0.453403 -0.937638,0.730419 c 0,0 -0.06868,-0.417909 0,-0.521501 0.06751,-0.10418 0.728684,-0.486584 0.833432,-0.555838 0.104181,-0.06926 -0.799095,-0.10593 -0.799095,-0.10593 0,0 -1.670407,0.557573 -1.739661,0.661743 -0.06926,0.103599 -1.356668,1.111677 -1.356668,1.111677 l 0.03725,0.835204 1.180931,0.175184 0.451633,0.101853 -0.313129,0.279954 -0.242699,0.520923 -0.764179,0.417294 -0.941108,0.694347 -0.799709,0.312539 -0.137937,-0.55526 0.694924,-0.417295 c 0,0 -0.1391,-0.867806 -0.208943,-0.799131 -0.06926,0.06985 -0.798517,-0.03434 -0.834047,0.06985 -0.03376,0.104759 0.03549,-0.65943 0.03549,-0.65943 L 51.4751,13.110563 51.301658,12.552411 c 0,0 0.591911,-0.486006 0.694346,-0.520344 0.104767,-0.03495 1.217582,-0.104767 1.217582,-0.104767 l 1.773999,-1.008049 -1.461453,-0.0681 c 0,0 -1.354354,0.03322 -1.425379,0.174024 -0.06984,0.139101 -0.971977,1.076725 -0.971977,1.076725 l -0.556995,0.417331 -1.843253,1.149484 -0.07043,0.798517 -0.764178,-0.138519 -0.555261,-0.104766 -1.389271,0.555838 v 0.764793 l -2.54284,0.14085 c 0,0 -1.215269,-0.175769 -1.215269,-0.347462 0,-0.175777 -0.451632,-0.522657 -0.590176,-0.522657 -0.141425,0 -1.705902,0.486584 -1.705902,0.486584 l -0.06926,0.486007 -1.808337,-0.102435 c 0,0 -1.494633,0.275877 -1.459717,0.138515 0.03488,-0.138515 -0.800866,-0.07043 -0.800866,-0.07043 l 1.25192,-0.556417 -0.867807,-0.417331 -1.567393,-0.242696 -1.111678,-0.347466 -1.249606,0.17402 -0.139104,-0.520922 -1.115147,0.450476 -0.313125,-0.730419 -0.764178,0.348633 c 0,0 -2.851302,0.590755 -2.991003,0.625093 -0.13794,0.03549 -0.832854,-0.278202 -0.832854,-0.278202 l -0.872433,0.416717 -1.666901,0.10418 -0.662322,-0.48597 -1.355512,-0.277623 -1.49579,0.06926 -2.783783,-0.453404 c 0,0 -1.598226,-0.243281 -1.494056,-0.27995 0.104181,-0.03495 -0.867806,-0.278205 -0.867806,-0.278205 0,0 0.039,-0.115823 0.06926,-0.183331 -0.341061,0.144338 -3.060257,0.600044 -3.060257,0.600044 L 8.217158,14.674438 5.81691,15.160444 c 0,0 0.069261,0.625671 0.1030134,0.729262 0.035495,0.106509 0.2438634,0.800288 0.2438634,0.800288 L 5.5037813,16.829119 H 4.8053867 l 0.3509539,-0.486006 -3.5508894,0.973133 0.072753,0.382378 -0.2450273,0.452211 1.1128337,0.104181 0.9399519,0.104184 c 0,0 0.5215008,-0.31196 0.5215008,-0.207783 0,0.104181 -0.2782084,0.902144 -0.2782084,0.902144 l -1.0773032,0.06985 c -0.069261,-0.104185 -0.6268274,0.03665 -0.6268274,0.03665 0,0 -0.7316119,0.44874 -0.7659497,0.347458 -0.03492,-0.104177 -1.45852491,0.243289 -1.45852491,0.243289 l -1.63664769,0.939374 -0.6245142,0.938217 -0.069257,0.694346 1.2170037,-0.206612 -0.6966957,0.939952 0.8002875,-0.03666 c 0,0 0.9399519,0 1.00920581,0.141435 0.070425,0.139101 0.48597016,0.06984 0.48597016,0.139101 0,0.07043 -8.27649287,3.268633 -8.34661427,3.165005 -0.069843,-0.106509 -1.2856793,0.55526 -1.2856793,0.55526 0,0 1.5976472,-0.277619 1.7041667,-0.277619 0.1035989,0 2.4671886,-0.557574 2.4671886,-0.557574 l 1.113412,-0.313128 c 0,0 2.400248,-0.694924 2.4322725,-0.799709 0.035502,-0.105345 1.70590166,-0.97429 1.81007168,-0.97429 0.10476281,0 0.66058688,-0.242703 0.69665964,-0.103017 0.0332065,0.138523 2.39909138,-0.624514 2.39909138,-0.624514 0,0 0.8334325,-0.593068 0.7659497,-0.697274 -0.072175,-0.104184 -0.5575735,-0.382378 -0.4184874,-0.416138 0.1385187,-0.03549 1.3886927,-0.210697 1.3886927,-0.210697 0,0 1.8793256,-0.7636 1.8449878,-0.660586 -0.03492,0.105341 -1.9125067,1.358439 -1.9125067,1.358439 L 7.623663,22.221468 8.7027372,21.768065 c 0,0 0.9033009,-0.416716 0.834047,-0.311961 -0.069843,0.104178 1.0435438,0.416138 1.0435438,0.520308 0,0.104185 2.328681,0.453404 2.328681,0.453404 l 0.696081,1.043543 -0.140846,1.354934 -0.06868,1.705901 1.251341,-0.139689 -0.311378,1.112255 0.07159,1.844409 c 0,0 0.06693,0.660009 0.06693,0.764179 0,0.104181 -0.973711,-0.207783 -0.973711,-0.207783 0,0 -0.139683,0.799094 -0.03549,0.902722 0.108255,0.104181 1.254269,1.25192 1.254269,1.25192 l -0.382956,0.487741 -0.871277,2.155799 -2.051629,2.363597 -0.346305,1.289764 -1.009206,1.111099 0.17402,0.800251 c 0,0 -0.2782011,0.557573 -0.20603,0.626249 0.06693,0.06868 0.485392,3.85993 0.485392,3.85993 l 1.461452,0.9033 0.381222,0.696082 0.20894,2.851302 0.624514,1.286257 -0.694346,0.487163 0.799095,1.110485 0.313706,0.03665 0.627984,0.728684 -0.245027,0.974904 0.65943,0.520886 0.627406,0.974326 0.104759,0.48597 0.591911,-0.590176 -0.591911,-1.217004 c 0,0 -0.417295,-0.906192 -0.382379,-1.112255 0.03488,-0.209529 -0.55526,-1.774577 -0.55526,-1.774577 0,0 -0.559308,-1.183245 -0.487741,-1.286836 0.06752,-0.105345 -0.419644,-0.798517 -0.419644,-0.798517 l 0.245027,-1.42538 1.008628,0.208366 c 0,0 0.174024,1.31886 0.174024,1.460296 0,0.138522 0.243863,0.973711 0.243863,0.973711 l 1.320596,1.840362 -0.207198,0.940566 2.537021,3.024762 -0.03488,1.21816 -0.382957,0.589598 0.208362,0.836361 2.122617,1.564466 0.346881,-0.06868 0.625092,0.626249 2.294307,1.148328 1.148328,0.278787 1.35844,-0.418487 0.868384,0.418487 1.321752,1.52955 1.35609,0.346306 1.389271,0.488898 h 0.664093 l 0.174021,0.797938 c 0,0 0.62567,0.800866 0.764757,0.905036 0.137943,0.10418 0.03492,1.009205 0.03492,1.009205 l 0.590176,0.310797 0.696081,0.731612 0.451633,0.419066 0.488319,0.55526 0.311961,-0.208362 0.626249,0.172857 0.902144,0.83636 0.591333,-0.349794 -0.169954,-0.65943 0.551754,-0.555838 h 0.48832 l 0.522657,0.416137 -0.03549,0.487163 0.625671,1.00805 0.03549,2.816964 -0.556417,0.905614 -0.766528,0.521501 -0.0326,0.832276 -0.801444,0.312542 -0.312542,1.113412 -0.487742,0.974326 0.104178,0.833433 0.696695,0.626249 -0.627405,0.664093 -0.450476,0.658852 0.413825,1.31886 c 0,0 0.207779,0.662322 0.207779,0.591911 0,-0.06926 0.664093,0.45456 0.664093,0.45456 l 1.216426,2.431116 1.180352,1.707059 c 0,0 1.717541,3.461249 1.752457,3.488611 0.518573,0.381222 4.302706,3.106811 4.302706,3.106811 l 0.645479,3.384442 0.188575,7.139724 0.555261,2.04288 -0.233971,4.12705 -0.183335,0.83343 c 0,0 0.740901,1.29789 0.740901,1.48531 0,0.18508 0.138523,1.80602 0.138523,1.80602 l 0.509283,1.76236 0.602394,-0.0454 -0.37074,-1.01969 0.465042,0.0466 0.321857,1.6215 0.04598,0.64779 -0.367848,-0.32418 -0.32593,0.32418 -0.232225,0.27937 0.463885,0.41906 -0.23106,0.64487 -0.09196,0.83694 0.648949,0.0931 0.463271,0.37016 -0.463271,0.78803 c 0,0 2.872844,5.05417 5.284767,5.65562 2.411887,0.60528 3.106811,0.78923 3.106811,0.78923 l 1.022038,-0.557 0.320689,-0.41614 -2.130786,-0.74151 -1.62266,-1.76468 -0.325934,-0.92542 0.509862,-0.36958 -0.09139,-0.69728 c 0,0 0,-0.50928 0.182757,-0.64779 0.187415,-0.13852 0.557573,-0.83462 0.557573,-0.83462 l -0.557573,-0.27879 -0.926,-0.926 0.09254,-1.06917 0.557574,-0.32186 c 0,0 0.04482,-0.60471 -0.04657,-0.74325 -0.09487,-0.13736 0.139108,-0.8352 0.278208,-0.8806 0.140265,-0.0477 0.507513,-0.60471 0.507513,-0.60471 H 55.6588 l -0.370161,-0.13736 -0.465621,-0.73974 v -0.55873 l 0.788071,0.23164 0.744407,-0.13969 0.416716,-0.60239 c 0,0 -0.139104,-0.37016 -0.185084,-0.5087 -0.04656,-0.13852 0.09254,-0.74264 0.231068,-0.78923 0.138515,-0.0436 0.972555,0.0466 0.972555,0.0466 l 1.577261,-0.41613 c 0,0 0.60355,-1.06802 0.557574,-1.25308 -0.04656,-0.18508 -0.04656,-0.78807 -0.04656,-0.78807 0,0 0,-0.41614 -0.370162,-0.46562 -0.373089,-0.0448 -0.373089,-0.18159 -0.46562,-0.557 -0.09429,-0.36958 -0.373089,-0.78687 -0.373089,-0.78687 l -0.462115,0.0931 0.418488,-0.41614 0.927156,0.69319 1.389849,0.23455 1.067436,-1.06801 0.742672,-1.80891 0.323607,-1.34503 h 0.694346 l 0.740901,-1.34446 0.279955,-1.25134 -0.231647,-1.53186 0.324185,-0.55349 2.410152,-1.623232 1.810072,-0.60355 0.605285,-0.46562 c 0,0 0.924228,-1.250185 0.924228,-1.389271 0,-0.139105 0.371933,-1.948616 0.371933,-1.948616 0,0 0.416138,-2.130172 0.368426,-2.268716 -0.04482,-0.141432 0.09429,-1.995171 0,-2.041725 -0.09312,-0.0454 0.04772,-0.557574 0.04772,-0.557574 l 1.76236,-2.502683 0.834625,-1.903217 c 0,0 0.605285,-0.972555 0.511597,-1.157654 -0.09428,-0.185663 -0.602971,-1.761782 -0.602971,-1.761782 z M 92.265141,13.911686 c 0,0 0.279947,-1.392777 0.07158,-1.531863 -0.211267,-0.138522 0.834626,-0.973133 0.834626,-0.973133 0,0 1.527779,-0.696082 1.597647,-0.902723 0.06926,-0.210115 -0.416716,-0.143178 -0.416716,-0.143178 l 0.137944,-1.0418083 0.975446,-0.347466 c 0,0 -0.55526,-0.8357819 -0.69666,-1.2536548 -0.137354,-0.4132463 1.670408,-0.6239358 1.670408,-0.6239358 l 3.199342,-1.460296 -3.823784,0.4167162 -0.141432,-0.4853918 -4.035233,-0.9050358 -8.065045,0.279947 -0.902722,0.4865846 h -2.786133 l -3.893183,0.3480515 c 0,0 -3.686071,0.4853918 -3.89499,0.6239358 -0.207201,0.1402681 0.417909,0.3486298 0.417909,0.3486298 l -0.06926,0.487163 -4.52283,0.5575735 -0.276459,0.4865846 c 0,0 0.48597,0.4860063 0.55526,0.5558385 0.0681,0.069261 1.947423,0.4859702 1.947423,0.4859702 l 2.22621,0.2782084 c 0,0 1.252498,0.5569954 1.458525,0.7636004 0.210689,0.208358 0.143181,0.837517 0.07217,1.184979 -0.07217,0.348052 -0.278204,0.416716 -0.555838,0.834047 -0.279373,0.418487 0.555838,0.208362 0.555838,0.208362 l 0.97429,0.486006 c 0,0 -0.278205,0 -0.697238,0.07217 -0.419066,0.06926 -0.97429,0.206034 -0.97429,0.206034 l -0.06926,0.767684 1.393356,-0.27763 -0.143178,0.485428 -0.971977,0.208365 -0.971976,1.180931 -0.07043,2.225632 0.20778,1.87759 0.556417,1.530707 0.905035,0.1391 1.04358,0.62625 1.392777,-0.071 1.388693,-1.877012 1.459718,-1.391042 0.417873,-0.764757 0.697274,-0.416716 1.527779,-0.346881 1.948615,-0.419065 c 0,0 1.806024,-1.182666 2.017291,-1.321753 0.206616,-0.138522 5.214285,-1.666322 5.214285,-1.666322 l 1.113412,0.06868 z m 1.393356,5.075126 1.947422,-0.625092 0.414946,-0.764179 -0.762408,-0.625092 -3.549154,0.416716 -1.042966,-0.627406 -1.250185,0.69666 c 0,0 0.625093,0.278212 0.833433,0.416716 0.208365,0.139104 0.625671,-0.138515 0.625671,-0.138515 v 0.625671 c 0,0 1.112833,0.625092 0.971976,0.835203 -0.137937,0.207784 1.811229,-0.210689 1.811229,-0.210689 z m 3.429839,9.481207 -0.394017,0.257248 -0.116409,0.441765 0.34807,0.207776 0.556995,0.115827 0.577345,-0.139104 0.490055,-0.278201 0.137383,-0.138526 0.81189,-0.05005 0.09253,-0.343971 0.187405,-0.349208 v -0.996989 l 0.440027,-0.255505 -0.14144,-0.647214 -0.693765,-0.161803 -0.555802,-0.09312 -0.370198,0.115237 -0.212435,0.300904 c 0,0 -0.343371,0.371318 -0.27528,0.29974 0.0716,-0.06693 0.254345,-0.06693 0.210689,0.04831 -0.04832,0.115238 -0.23572,0.231061 -0.23572,0.231061 h -0.273528 l -0.236912,-0.139101 -0.34572,0.04598 -0.116962,0.20894 0.141996,0.324771 -0.234564,0.232807 0.27822,0.232221 0.27703,0.06694 -0.04306,0.325927 -0.303817,0.137362 z m 2.757651,-2.733758 c 0.162923,0.06751 0.231053,0.162385 0.208333,0.230479 -0.0203,0.07217 0.34807,0.117565 0.34807,0.117565 l 0.30262,-0.06867 -0.20834,0.324182 c 0,0 0.0454,0.208947 0.11406,0.302067 0.0716,0.09254 0.30381,0 0.30381,0 0,0 0.55699,-0.09312 0.62682,-0.06984 0.0675,0.02212 -0.025,0.231642 -0.025,0.231642 l 0.21069,0.3236 c 0,0 0.1135,0.464464 0.13679,0.602393 0.0251,0.141436 -0.18566,0.09196 -0.18566,0.09196 0,0 -0.43652,0.06926 -0.53372,0.04889 -0.0925,-0.02328 -0.27587,0.160058 -0.43768,0.344556 -0.16352,0.189158 0.0231,0.117569 0.0231,0.117569 h 0.34456 c 0,0 0.0274,0.230479 0.0489,0.326517 0.0211,0.09254 -0.27878,0.183335 -0.36955,0.160054 -0.0926,-0.02212 -0.51102,0.18683 -0.51102,0.18683 l 0.0215,0.348048 0.5116,0.04597 0.51102,0.06985 0.0925,0.161796 c 0,0 -0.32824,0.06985 -0.41906,0 -0.0925,-0.06926 -0.37071,0.37074 -0.37071,0.37074 l -0.25434,0.278208 -0.535454,0.416717 0.300904,0.139686 0.18625,-0.232803 0.4662,0.02328 0.50632,-0.06926 c 0,0 0.3044,-0.37074 0.37424,-0.37074 0.0675,0 0.78746,-0.02212 0.78746,-0.02212 0,0 0.57969,-0.116405 0.64898,-0.06984 0.0692,0.04656 0.53368,0.140268 0.60587,0.162382 0.0681,0.0227 0.97197,-0.254924 0.97197,-0.254924 0,0 0.1845,-0.300904 0.23047,-0.393439 0.0483,-0.09255 -0.25315,-0.185084 -0.32243,-0.254931 -0.0693,-0.06983 0.2305,-0.161796 0.37074,-0.23106 0.13794,-0.06926 0.18449,-0.325346 0.25493,-0.439994 0.0669,-0.114659 -0.0937,-0.349794 -0.11699,-0.417295 -0.0223,-0.07159 -0.34748,-0.05006 -0.43942,-0.07159 -0.0926,-0.02386 -0.48655,0.02151 -0.48655,0.02151 l 0.0211,-0.463307 c 0,0 -1.08955,-1.482995 -1.06627,-1.552249 0.0231,-0.06752 -0.25491,-0.509862 -0.37074,-0.531368 -0.11581,-0.02328 -0.2555,-0.119315 -0.3946,-0.3044 -0.13794,-0.18392 0.18566,-0.417294 0.18566,-0.417294 0,0 0.39286,-0.416716 0.43999,-0.508669 0.0466,-0.09312 -0.0477,-0.37074 -0.11581,-0.394018 -0.0704,-0.0227 -0.87944,0.02328 -0.87944,0.02328 0,0 -0.23107,-0.185081 -0.20953,-0.254342 0.0238,-0.07275 0.25553,-0.09429 0.32593,-0.09429 0.0658,0 0.48601,-0.809577 0.57854,-0.832854 0.092,-0.02501 -0.0704,-0.231639 -0.0704,-0.231639 l -0.32299,0.135027 -0.30151,0.443499 c 0,0 -0.28053,0.06926 -0.39401,0 -0.11466,-0.06984 -0.34863,0 -0.44115,-0.02328 -0.0925,-0.02621 -0.30441,0.278209 -0.30441,0.278209 0,0 -0.32129,0.347462 -0.41499,0.370161 -0.0925,0.02328 -0.417291,0.394017 -0.39401,0.416716 0.0251,0.02328 0.046,0.325927 0.046,0.325927 0,0 -0.06924,0.114078 -0.185053,0.137362 -0.115256,0.0227 0.09193,0.416717 0.09193,0.416717 l 0.280533,0.140857 c 0,0 -0.16469,0.160632 -0.256655,0.139097 -0.09428,-0.02559 -0.302661,0.232806 -0.140843,0.300904 z M 208.89921,20.704316 c 0,-0.01923 -0.0104,-0.01923 -0.0303,-0.0076 0.0203,0.01511 0.0303,0.02039 0.0303,0.0076 z m -28.46423,40.919808 c 0.0466,-0.06927 0.69435,-0.394017 0.71705,-0.558152 0.0242,-0.15889 0.48716,1.509743 0.48716,1.509743 l 0.32709,1.158232 c 0,0 0.2526,0.833468 0.34572,0.99641 0.0931,0.163549 0.22991,1.229221 0.22991,1.32233 0,0.09196 0.30496,0.715889 0.16472,0.786878 -0.14203,0.06926 -0.37074,0.0227 -0.32654,0.116409 0.0489,0.09137 0.16122,0.602393 0.16122,0.698431 0,0.09138 -0.0681,0.71531 -0.11231,0.831697 -0.0489,0.116405 -0.0693,0.417909 -0.0693,0.554682 0,0.140268 0.0885,0.397523 0.0885,0.464464 0,0.071 0.0716,0.186248 0.0716,0.186248 0,0 0.0943,0.04772 0.13854,-0.06984 0.0477,-0.116405 0.39459,-0.161803 0.44292,-0.116405 0.0448,0.04773 0.57738,0.671069 0.62509,0.859059 0.0454,0.183917 0.62509,1.090135 0.69319,1.182088 0.0704,0.09313 0.37305,0.39521 0.18391,0.648948 -0.18391,0.254931 -0.18391,0.300908 -0.15888,0.439415 0.0227,0.138519 0.0931,0.647792 0.323,0.92947 0.23456,0.276459 0.7182,0.809577 0.7182,0.809577 0,0 0.6047,0.420222 0.69785,0.536031 0.0908,0.114659 0.76364,0.183917 0.83517,0.461536 0.0664,0.277623 0.25319,0.558152 0.25319,0.558152 0,0 0.53198,0.160636 0.53198,0.232221 0,-0.05762 -0.006,-0.867192 -0.0675,-0.977796 -0.0681,-0.11291 -0.62393,-1.250185 -0.69615,-1.31886 -0.0675,-0.07042 -0.18331,-0.231643 -0.11406,-0.530212 0.0692,-0.304977 -0.0472,-1.093604 -0.0472,-1.093604 l -1.08952,-1.299053 c 0,0 -0.95097,-0.927735 -0.97371,-0.880024 -0.0227,0.0454 -0.74321,-0.278783 -0.71531,-0.556995 0.0187,-0.277623 -0.0751,-0.971977 -0.28283,-1.134955 -0.20603,-0.161221 -0.39167,-0.418487 -0.55411,-0.51044 -0.16121,-0.09487 -0.0454,-0.974868 0,-1.090713 0.0448,-0.115819 0.41618,-1.13434 0.39464,-1.202473 -0.0255,-0.06926 0.0919,-1.019688 0.0919,-1.019688 0,0 0.30035,-0.398102 0.36958,-0.257837 0.0716,0.138518 0.39463,0 0.3015,0.417294 -0.092,0.420223 -0.0443,0.675154 -0.0443,0.675154 l 0.83228,-0.164124 0.58143,0.604128 0.41848,0.554646 0.53253,0.325352 c 0,0 0.13853,0.626828 0.20778,0.670491 0.071,0.0483 0.41791,-0.138522 0.41791,-0.138522 l 0.53314,0.373667 c 0,0 -0.30266,0.554682 -0.23051,0.696081 0.0681,0.138515 0.13563,0.623936 0.13563,0.623936 l 0.51218,-0.417909 0.65068,-0.486584 0.32419,-0.463886 0.11581,-0.346884 0.92542,-0.396367 0.8818,-0.810733 -0.0215,-1.716384 -0.27882,-1.065086 -0.78803,-1.113412 -1.53187,-1.528971 -0.60008,-0.74148 c 0,0 -0.41848,-0.533139 -0.39694,-0.671069 0.0239,-0.141432 0.11406,-0.88118 0.11406,-0.88118 l 0.42022,-0.395174 0.81251,-0.811348 c 0,0 0.55584,-0.370739 0.64895,-0.27879 0.092,0.09313 0.83347,0.06985 0.85736,0.138526 0.0215,0.06984 0.11871,0.04772 0.0681,0.185081 -0.0466,0.138522 0.0227,0.765949 0.0919,0.835782 0.0716,0.06984 0.23457,0.137358 0.30381,0.161803 0.0652,0.02212 0.30035,-0.07042 0.3242,-0.208944 0.0238,-0.137937 -0.0239,-0.625671 0,-0.742058 0.0238,-0.115241 0.0693,-0.115241 0.13968,-0.138522 0.0693,-0.02328 0.41502,0 0.41502,0 l 0.37305,-0.37074 0.64779,0.231643 0.69554,-0.604128 c 0,0 0.3719,-0.06752 0.41845,-0.02212 0.0454,0.04831 0.65069,-0.462693 0.65069,-0.462693 l 0.62509,-0.13969 0.55464,-0.232221 c 0,0 0.23166,-0.533717 0.23166,-0.465042 0,0.07043 1.34622,-1.342716 1.34622,-1.342716 l 0.44,-1.090135 0.53198,-1.552827 0.32419,-1.926495 0.0243,-0.55526 c 0,0 -0.51105,0.416138 -0.57911,0.44115 -0.0704,0.02151 -0.48655,-0.09196 -0.48655,-0.09196 l 0.32299,-0.580851 c 0,0 0.18625,-0.416716 0.0931,-0.44003 -0.0931,-0.02385 -0.55696,-0.161799 -0.55696,-0.161799 0,0 0.19962,-0.456295 0.22931,-0.485971 -0.0425,0 -0.80669,-0.789227 -0.80669,-0.789227 0,0 -1.02142,-1.460296 -1.06801,-1.345607 -0.0466,0.116405 -0.83347,-0.555261 -0.90562,-0.555261 -0.0663,0 -0.1141,0.0227 -0.15946,-0.115241 -0.0466,-0.139686 0.6955,-1.113412 0.7182,-1.185557 0.0227,-0.06693 0.67045,-0.787456 0.78922,-0.763601 0.11291,0.02328 0.5081,0.04598 0.5081,0.04598 0,0 -0.0949,-0.462692 -0.16298,-0.48597 -0.0675,-0.0227 -1.64362,-0.161803 -1.64362,-0.161803 0,0 -0.62509,0.37074 -0.64895,0.463307 -0.0267,0.09254 -0.53198,0.04715 -0.53198,0.04715 l -0.071,-0.533718 -0.62914,-0.300911 -0.71647,-0.25492 0.0243,-0.487163 c 0,0 0.43829,-0.161218 0.50867,-0.211272 0.0693,-0.04656 0.62509,-0.321857 0.67049,-0.555838 0.0466,-0.232225 0.41845,-0.602394 0.46619,-0.672226 0.0454,-0.06926 0.34572,-0.324188 0.41383,-0.277623 0.0716,0.04598 0.51449,0.37074 0.46504,0.394017 -0.0436,0.0227 -0.34512,0.511019 -0.27877,0.647792 0.0721,0.141432 0.39633,0.559308 0.35096,0.627406 -0.0454,0.07101 -0.18624,0.325934 -0.18624,0.325934 l 0.34802,-0.04656 c 0,0 0.44003,-0.34747 0.41618,-0.393439 -0.0227,-0.05005 0.34802,-0.441186 0.41733,-0.441186 0.0692,0 0.83632,-0.164706 0.85616,-0.09544 0.0251,0.07043 0.79039,0.254924 0.79039,0.254924 l 0.13969,1.393355 c 0,0 1.85485,0.44003 1.85485,0.556417 0,0.115238 -0.20948,0.299737 -0.20948,0.299737 0,0 -0.0231,0.371318 0.0698,0.419065 0.0919,0.04424 0.39282,0.299744 0.46385,0.394017 0.0722,0.09254 0.20953,0.719938 0.20953,0.719938 0,0 -0.25375,0.55526 -0.20953,0.625092 0.0454,0.07043 0.50986,0.486585 0.50986,0.486585 l 1.32233,-0.509862 c 0,0 0.71704,-0.555839 0.71704,-0.625093 0,-0.07101 -0.7636,-1.925302 -0.7636,-1.925302 l -1.76355,-1.208257 -0.76244,-0.625092 1.06508,-1.041809 -0.0931,-0.903301 c 0,0 0.23166,-0.884071 0.27822,-0.884071 0.0489,0 0.69608,-0.462115 0.69608,-0.462115 l 0.7409,0.512754 1.11341,-0.697274 0.62625,-2.246596 0.0227,-2.923483 -0.99699,-1.784481 c 0,0 -0.46273,-1.089557 -0.53487,-1.089557 -0.0692,0 -0.73975,-1.045314 -0.73975,-1.045314 l -1.5534,-0.693768 -0.674,-0.02328 -0.41556,0.694347 -0.4388,-0.532562 -0.60301,-1.065086 0.0681,0.64837 c 0,0 0.0931,0.416716 0.0652,0.509284 -0.0175,0.09254 -0.46092,-0.579694 -0.46092,-0.579694 0,0 -0.74151,-0.137941 -0.78745,-0.137941 -0.0448,0 -0.41733,-0.210689 -0.41733,-0.210689 0,0 1.0936,-1.271727 0.99876,-1.226329 -0.092,0.0454 0.18505,-1.62266 0.18505,-1.62266 0,0 0.39348,-0.789805 0.41618,-0.743251 0.0238,0.04714 1.52781,-0.161799 1.52781,-0.161799 0,0 2.75935,-0.04481 2.73665,0 -0.0227,0.04831 1.34619,-0.0908 1.34619,-0.0908 0,0 0.0443,0.394018 0.16412,0.440609 0.11295,0.0454 1.22517,-0.02501 1.22517,-0.02501 l 0.81197,-0.184502 0.39228,-0.04773 c 0,0 -0.48543,-0.48597 -0.55584,-0.48597 -0.0693,0 -0.53198,-0.210111 -0.57738,-0.233392 -0.0483,-0.02328 0.34691,-0.902145 0.32303,-1.041809 -0.0215,-0.139683 -0.0681,-0.625671 0.11581,-0.579116 0.1851,0.04714 1.43995,0.04714 1.43995,0.04714 0,0 0.50747,0.484813 0.50747,0.624514 0,0.138518 0.81197,0.625092 0.81197,0.625092 0,0 0.44176,-0.486584 0.48655,-0.578537 0.039,-0.07392 0.27356,-0.335246 0.36318,-0.378294 -0.11175,-0.09137 -0.4761,-0.571526 -0.4761,-0.571526 0,0 0.39228,-0.441765 0.60008,-0.210111 0.21128,0.232228 0.6728,1.228642 0.6728,1.228642 0,0 -0.41848,1.042387 -0.41848,1.13669 0,0.0908 -0.16122,1.044158 -0.16122,1.114568 0,0.06868 -0.46447,0.485392 -0.46447,0.485392 0,0 -0.2293,0 -0.2293,0.11582 0,0.115241 0.32128,0.740323 0.32128,0.740323 0,0 0.11991,0.719937 0.1851,0.7636 0.071,0.05063 2.39034,2.064424 2.39034,2.064424 l 1.5057,1.486502 0.97602,0.809576 0.27647,-0.06867 c 0,0 0.23341,-1.134955 0.14028,-1.091292 -0.0937,0.04831 -0.46504,-0.345716 -0.41675,-0.413824 0.0448,-0.07392 0.13738,-0.39868 0.25204,-0.374824 0.11815,0.02501 0.46504,0.09195 0.46504,0.09195 l -0.6955,-0.880024 0.23047,-0.485392 0.53545,0.1618 -0.71943,-0.764179 -0.37071,-0.74325 c 0,0 0.39399,0.09196 0.42023,0.160639 0.0203,0.07391 0.43941,-0.297416 0.29971,-0.322439 -0.14025,-0.02559 -0.97429,-0.325931 -0.97429,-0.395788 0,-0.06868 -0.48539,-0.184502 -0.51218,-0.278201 -0.0211,-0.09196 0.0937,-0.462693 0.0267,-0.462693 -0.0692,0 -0.78807,-0.324185 -0.78807,-0.324185 l -0.46678,0.06693 -0.2549,-0.506934 0.13849,-0.394018 c 0,0 -0.44404,-0.630911 -0.4842,-0.671069 0.0354,0.03199 0.99059,-0.332913 1.08135,-0.371896 -0.006,0.01515 0.45167,-0.03785 0.49183,0.136191 0.0483,0.186834 0.25494,0.372511 0.25494,0.372511 l 0.48947,-0.463307 c 0,0 0.34688,-0.302654 0.48597,-0.233974 0.13913,0.06926 0.81135,0.211278 0.90623,0.302067 0.0827,0.08498 0.50462,0.204874 0.56979,0.281115 -0.006,-0.09719 0.008,-0.398102 0.008,-0.398102 l 0.0199,-0.254338 0.65361,-0.880023 c 0,0 0.252,-0.370162 0.48655,-0.419066 0.23166,-0.04423 0.71704,-0.461536 0.80958,-0.391126 0.0931,0.0681 0.86198,0.04656 0.95448,0.254928 0.0908,0.20778 0.50812,-0.06985 0.50812,-0.06985 0,0 -0.39636,-0.48597 -0.41733,-0.44115 -0.0215,0.04598 -1.29966,-0.511597 -1.36834,-0.486007 -0.0704,0.02097 -0.92538,-0.511018 -0.92538,-0.511018 0,0 -0.44293,-0.162385 -0.46389,-0.162385 -0.0227,0 0.34516,-0.185667 0.48366,-0.232229 0.14028,-0.0454 0.46562,-0.48597 0.46562,-0.48597 0,0 -0.16122,-0.300904 -0.2555,-0.394017 -0.0937,-0.09196 0.51044,-0.0227 0.7182,0.06985 0.20778,0.09254 1.25423,0.138515 1.22922,0.208361 -0.0255,0.06868 0.6955,0.06868 0.67165,0.254924 -0.0239,0.185663 0.2549,0.230479 0.34803,0.324185 0.0931,0.09312 0.97371,0.231643 1.02142,0.254927 0.0425,0.0227 0.92369,-0.06926 0.92369,0.06868 0,0.139683 0.27938,-0.02212 0.27938,-0.02212 0,0 -0.13854,-0.671647 -0.30091,-0.625671 -0.16416,0.04598 -0.46678,-0.185669 -0.25609,-0.231068 0.20952,-0.04598 0.60355,-0.278201 0.48831,-0.324759 -0.11755,-0.0454 -0.30205,-0.278209 -0.58027,-0.39521 -0.27702,-0.115823 -1.39043,-0.368427 -1.50623,-0.324767 -0.11466,0.04831 -1.85551,-0.371896 -1.96781,-0.371896 -0.11876,0 -0.72113,-0.160058 -0.72113,-0.160058 l -5.93502,-1.59996 c 0,0 -3.68607,-0.393439 -3.66438,-0.465043 0.0251,-0.06751 -2.13195,-0.254338 -2.13195,-0.254338 l 1.27693,1.066857 -1.27693,-0.184502 c 0,0 -1.57495,-0.254924 -1.6215,-0.324767 -0.0478,-0.06868 -4.40717,-0.09254 -4.40717,-0.09254 l -0.64779,-0.698431 c 0,0 -2.08774,-0.344556 -2.15695,-0.367848 -0.0693,-0.02559 -2.66682,0 -2.66682,0 l -2.17503,-0.324767 c 0,0 -1.46257,-0.627406 -1.78737,-0.556995 -0.32419,0.06984 -3.52353,-0.208362 -3.70993,-0.302068 -0.18394,-0.09312 -1.45737,0.09312 -1.45737,0.09312 l 1.03773,0.788649 -1.71227,-0.04773 -1.7158,-0.02386 -0.65068,-0.323599 0.0267,0.951012 c 0,0 -0.48832,0.09022 -0.48832,-0.02501 0,-0.115826 -1.50801,-0.647791 -1.50801,-0.647791 0,0 -1.25369,-1.111641 -1.27462,-1.041809 -0.0239,0.06868 -2.0359,-0.394595 -2.0359,-0.394595 l -1.25601,-0.230479 c 0,0 -0.37074,0.161214 -0.32534,0.254338 0.0465,0.09255 0.53314,0.416716 0.46385,0.486006 -0.0692,0.06868 -0.83227,-0.06926 -0.83227,-0.06926 l -1.97128,-0.06926 -0.35042,-0.37074 -2.59637,0.02328 c 0,0 -0.97314,-0.76595 -0.99761,-0.721708 -0.0211,0.04656 -0.7409,0.166455 -0.7409,0.166455 l -0.55699,0.601237 -1.57495,0.116405 1.69484,-0.905036 0.60239,-0.439416 c 0.0436,-0.1187324 -0.42141,-0.812504 -0.51101,-0.720551 -0.0914,0.093706 -1.41606,-0.3241813 -1.48531,-0.3241813 -0.0693,0 -2.06323,-0.046562 -2.06323,-0.046562 -0.14085,-0.022699 -0.7648,0 -0.7648,0 0,0 -0.23165,-0.6477915 -0.34802,-0.6250924 -0.11466,0.023277 -1.62386,-0.023277 -1.62386,-0.023277 0,0 -1.34329,0.2782048 -1.39393,0.4167162 -0.0413,0.1402609 0.2584,0.2782012 0.2584,0.2782012 0,0 -0.7182,0.5331394 -0.78861,0.4865846 -0.0681,-0.046562 -2.15699,-0.046562 -2.15699,-0.046562 0,0 -2.89728,0.6250917 -2.89728,0.5552597 0,-0.05936 -0.86723,0.3108 -1.06921,0.399836 0.17053,0.149576 0.77875,0.495874 0.69843,0.577345 -0.092,0.09196 -2.04114,0.185081 -2.1104,0.0454 -0.0623,-0.127455 -0.83289,0.166459 -0.9551,0.185088 0.14025,0.0582 1.05287,0.771769 1.11631,0.880602 0.0692,0.115241 0.23687,0.278204 0.46388,0.185088 0.23162,-0.09255 0.44,-0.185088 0.48771,-0.09255 0.0466,0.09255 0,0.300904 0,0.300904 0,0 -0.58085,0.116405 -0.64779,0.116405 -0.0663,0 -0.76595,-0.394596 -0.83578,-0.417295 -0.0681,-0.02328 -0.99587,-0.231639 -1.1128,-0.231639 -0.11876,0 -0.62799,0.06926 -0.62799,0.06926 0,0 -0.39347,0.348044 -0.3015,0.394595 0.096,0.04598 0.32709,0.486006 0.39752,0.441187 0.0681,-0.04831 0.48655,-0.233393 0.50809,-0.02386 0.0239,0.206037 -0.48539,0.371318 -0.48539,0.371318 0,0 -0.69843,-0.28054 -0.72113,-0.348055 -0.0227,-0.07217 -0.34802,-0.464464 -0.34802,-0.673382 0,-0.208941 -0.41617,-0.949856 -0.53198,-0.834626 -0.11466,0.116402 -0.53199,0.162385 -0.53199,0.162385 l 0.51044,0.463308 c 0,0 0.43884,0.369583 0.323,0.394017 -0.11466,0.02328 -0.44,0.207783 -0.46154,0.278205 -0.0239,0.06926 -0.27878,0.462114 0.0215,0.462114 0.30147,0 0.78861,0.465621 0.78861,0.465621 0,0 0.0227,0.626827 0.0681,0.719358 0.0466,0.09254 0.76364,0.578538 0.76364,0.578538 0,0 0.44404,-0.278208 0.50924,-0.346884 0.0734,-0.06984 0.67631,-0.185084 0.81486,-0.04656 0.1391,0.138519 -0.27938,0.48597 -0.39402,0.417294 -0.117,-0.07042 -0.37074,-0.139686 -0.48655,-0.09371 l -0.11816,0.04598 c 0,0 -0.16121,0.348044 0,0.417295 0.16353,0.07043 0.37483,0.302071 0.35038,0.417294 -0.0251,0.115242 -0.46389,0.904458 -0.46389,0.904458 l -0.65068,0.138522 c -0.23166,-0.04598 -0.60124,-0.208362 -0.60124,-0.208362 l 0.69489,-0.531982 0.0931,-0.719974 c 0,0 0.0239,-0.04598 -0.16122,-0.208358 -0.18916,-0.161225 -0.83632,-0.740323 -0.83632,-0.740323 0,0 -0.39348,-0.650104 -0.39348,-0.719358 0,-0.07275 -0.18505,-0.419066 -0.18505,-0.419066 0,0 -0.44119,-0.300908 -0.53434,-0.321861 -0.0908,-0.02386 -0.0908,-0.279947 -0.0203,-0.418487 0.0681,-0.139683 -0.0704,-0.764179 -0.0943,-0.672226 -0.0267,0.09312 -0.81305,-0.0227 -0.90678,-0.04598 -0.0931,-0.0227 -0.30031,-0.278205 -0.30031,-0.278205 0,0 -0.11465,-0.392282 -0.30325,-0.231057 -0.18331,0.161796 -0.50748,0.231057 -0.50748,0.231057 l -0.32419,0.856746 0.0919,0.348045 -0.64895,0.441764 c 0,0 0.54767,0.470862 0.59831,0.506935 -0.0394,-0.01923 0.0291,0.467355 0.0506,0.582586 0.0211,0.115823 0.99584,0.371318 0.99584,0.371318 0,0 0.51044,0.207776 0.55584,0.416138 0.0477,0.208358 -0.13969,0.463885 -0.13969,0.463885 l -0.99471,-0.463885 -2.20471,-0.694347 c 0,0 -2.13017,-0.138522 -2.08535,-0.207783 0.0483,-0.06926 -0.8125,-0.557574 -0.8125,-0.557574 l -0.48717,0.254346 c 0,0 0.46273,0.326512 0.53488,0.34688 0.0693,0.02559 0.76479,0.280533 0.76479,0.280533 0,0 0.20953,0.115819 0.25494,0.301489 0.0483,0.184499 -0.39348,0.416138 -0.39348,0.416138 0,0 -0.3003,-0.324185 -0.3003,-0.39286 0,-0.06985 -0.0716,-0.348052 -0.16353,-0.302072 -0.0931,0.04656 -0.95044,0.487163 -0.95044,0.487163 0,0 -0.97371,0.0227 -1.09071,0.115241 -0.11581,0.09254 -0.74152,0.534296 -0.78807,0.417295 -0.0477,-0.115823 0.092,-0.602393 0.071,-0.694925 -0.0242,-0.09254 -0.9749,0.162971 -0.9749,0.162971 0,0 -1.22687,0.392861 -1.2752,0.508091 -0.0454,0.117573 -0.60127,0.232228 -0.69669,0.255506 -0.092,0.02328 -0.20663,0.02328 -0.20663,0.02328 0,0 -0.48539,0.30265 -0.3946,0.462693 0.0931,0.16296 -0.67226,0.254342 -0.67226,0.254342 0,0 -0.48539,-0.300322 -0.50809,-0.367848 -0.0223,-0.06344 0.5267,-0.43244 0.57911,-0.46385 -0.071,0.04598 -0.57911,-0.602972 -0.64956,-0.626249 -0.0611,-0.01862 -1.32114,0.01399 -1.54585,0.0047 0.1467,0.05354 0.59542,0.487741 0.59542,0.551754 0,0.06985 0.0704,0.742636 0.0704,0.742636 0,0 0.36785,0.233392 0.43884,0.206034 0.0692,-0.02096 -0.071,0.395788 -0.071,0.395788 l -0.62221,-0.06926 c 0,0 -0.2584,-0.373089 -0.46677,-0.162385 -0.20894,0.210689 -0.90273,0.743214 -0.94809,0.67396 -0.0477,-0.06984 -0.44118,0.06926 -0.41791,0.208365 0.0239,0.139683 0.32479,0.439416 0.32479,0.439416 0,0 -0.43945,0.37074 -0.39637,0.23281 0.0483,-0.14085 -1.20301,-0.463885 -1.2967,-0.440608 -0.096,0.02328 -0.62799,0.185666 -0.62799,0.185666 l 0.23047,0.393439 c 0,0 0.69724,0.04598 0.78861,0.185084 0.096,0.138523 -0.15946,0.416717 -0.23277,0.416717 -0.0652,0 -1.68902,-0.764757 -1.68902,-0.764757 0,0 -0.53434,-0.555261 -0.37367,-0.717046 0.16643,-0.162381 0.30381,-0.416716 0,-0.416716 -0.29976,0 -0.62394,-0.233385 -0.64487,-0.325927 -0.0242,-0.09254 1.82815,0.187408 1.82815,0.187408 l 1.06917,0.114074 c 0,0 -0.13854,0.14085 0.27877,0 0.41556,-0.1391 1.11165,-0.488319 1.20479,-0.508091 0.0931,-0.02736 0.20662,-0.466777 0.20662,-0.466777 l -0.13853,-0.393439 -3.98499,-0.949855 c 0,0 -1.32352,-0.394018 -1.34622,-0.463272 -0.0227,-0.06926 -1.18266,-0.186826 -1.18266,-0.186826 l -0.55761,0.07158 0.46677,-0.580851 c 0,0 -1.81126,-0.534874 -1.85547,-0.46562 -0.0489,0.06926 -0.78922,0.421379 -0.78922,0.421379 l -1.39043,-0.233392 -1.78683,0.416716 -1.80892,0.441765 -2.61795,1.111677 0.97371,0.09254 -0.41964,0.717624 -1.15942,0.860794 -0.64664,1.064508 -0.0931,0.579694 -0.62505,0.671069 c 0,0 -0.44003,-0.231061 -0.53256,-0.322439 -0.092,-0.09487 -1.6244,0.43768 -1.6244,0.43768 l -0.926,0.881759 c 0,0 -0.23166,0.441764 -0.27822,0.557573 -0.0483,0.116987 0.0693,1.345644 0.0693,1.345644 0,0 0.55642,0 0.39344,0.161796 -0.16296,0.161225 -0.13968,0.905036 -0.13968,0.905036 l 0.65014,0.43768 c 0,0 0.85671,0.280529 0.97602,0.256088 0.1112,-0.0227 0.53141,-0.300908 0.6024,-0.34747 0.0646,-0.04539 0.57792,-0.55526 0.73974,-0.534296 0.16178,0.02559 0.57854,-0.441186 0.62683,-0.275877 0.0454,0.162385 0.13913,0.74148 0.2305,0.880602 0.0925,0.139104 0.41672,0.394017 0.55526,0.717045 0.13794,0.325356 0.32825,0.651298 0.27934,0.717624 -0.0483,0.07217 -0.3719,0.394017 -0.3719,0.394017 0,0 -0.69319,0.09255 -0.78745,0.188576 -0.0919,0.09138 -0.20779,0.137359 -0.27763,0.09138 -0.0716,-0.04656 0.23106,-0.372511 0.30091,-0.461537 0.0704,-0.09487 -0.16178,-0.466198 -0.2549,-0.443499 -0.0943,0.02447 -0.18451,-0.208362 -0.0943,-0.27762 0.0943,-0.06984 0.071,-0.509862 0.071,-0.509862 0,0 -0.13912,-0.07043 -0.20778,-0.04598 -0.0698,0.02328 -0.88118,0.346884 -0.88118,0.346884 0,0 -0.43999,0.463885 -0.46327,0.555838 -0.025,0.09545 -0.21068,0.580851 -0.092,0.927157 0.11525,0.349794 0.39286,0.906192 0.39286,0.906192 0,0 0.29856,0.207198 0.18506,0.300911 -0.11406,0.09196 -0.34918,0.439994 -0.34918,0.439994 l -0.55349,0.0227 c 0,0 -0.99698,0.118155 -1.09132,0.162385 -0.0914,0.04772 -1.0639,0.346888 -1.02027,0.441187 0.0489,0.09254 -0.20953,1.090713 -0.20953,1.090713 -0.0448,0.02328 -1.01908,0.718202 -1.13434,0.718202 -0.11581,0 -0.83405,0.184499 -0.83405,0.184499 0,0 -0.32478,0.857902 -0.34687,0.810733 -0.0231,-0.04714 -1.09248,0.509862 -1.09248,0.509862 0,0 -0.81016,-0.232228 -0.83344,-0.325931 -0.0231,-0.09196 -0.30205,-0.300322 -0.32418,-0.230478 -0.0243,0.07042 0.27703,0.79154 0.27703,0.930662 0,0.135613 0.0472,0.414403 -0.046,0.323603 -0.0931,-0.09487 -0.55642,-0.231064 -0.64837,-0.278201 -0.0949,-0.0454 -0.88176,-0.02447 -0.88176,-0.02447 h -0.32478 c 0,0 -0.39518,0.349212 -0.41849,0.278787 -0.0215,-0.07042 -0.0448,0.302649 -0.0448,0.302649 l 0.23046,0.230483 0.83698,0.347466 0.78745,0.487163 0.30147,0.740901 0.34691,0.695503 c 0,0 -0.23226,1.437018 -0.27532,1.508586 -0.0512,0.0681 -0.53603,0.394595 -0.53603,0.394595 l -1.50804,-0.02559 c 0,0 -0.74206,-0.161221 -0.811314,-0.184498 -0.06929,-0.02447 -1.113412,0.138515 -1.133798,0.04598 -0.0231,-0.09371 -0.349222,-0.07042 -0.349222,-0.07042 L 97.943528,36.37713 h -0.416716 l -0.347473,0.392861 -0.509826,0.02559 v 0.414981 c 0,0 0.208333,0.952783 0.185055,0.883493 -0.0231,-0.07159 -0.09193,1.111063 -0.09193,1.111063 0,0 -0.501115,1.007471 -0.55179,1.084315 0.01117,0.03022 -0.02743,0.678045 -0.02743,0.678045 l 0.3021,0.487741 0.04597,0.57796 c 0,0 -0.232217,0.532561 -0.139093,0.486584 0.09368,-0.04714 0.836324,0.0227 0.85671,-0.06926 0.0231,-0.09196 0.465042,-0.300904 0.532561,-0.139682 0.06865,0.161803 0.325898,0 0.398102,0.280536 0.06459,0.277615 0.321839,0.671069 0.346869,0.739744 0.0227,0.07217 0.20778,0.139101 0.20778,0.139101 l 0.06929,0.187412 -0.140882,0.116401 -0.576189,1.296162 -1.278125,0.905036 -0.7636,0.485391 -0.208951,0.58143 -0.323603,0.370739 -0.09312,0.718203 c 0,0 0.09312,0.902722 0.04482,0.950434 -0.04482,0.04598 -1.737926,1.645973 -1.737926,1.645973 l -0.927157,0.208358 -0.512175,0.881758 c 0,0 -0.694925,0.647213 -0.739745,0.76595 -0.04831,0.114074 -0.395173,0.556417 -0.395173,0.556417 0,0 0.02328,0.925421 0,0.787456 -0.02386,-0.139104 -0.995833,0.7636 -0.995833,0.7636 0,0 -0.18508,1.066857 -0.23106,1.114569 -0.04598,0.04423 -0.509284,0.85671 -0.580851,0.833432 -0.06927,-0.02386 -0.138523,0.555839 -0.138523,0.648948 0,0.09196 0.230483,0.369583 0.230483,0.369583 0,0 0.327091,0.628563 0.349208,0.558731 0.02212,-0.07159 0.02212,0.209522 0.02212,0.209522 l -0.323018,0.322439 c 0,0 0.348045,0.534874 0.348045,0.604128 v 1.435248 l -0.372475,0.789805 -0.185088,1.020845 -0.558152,0.439415 0.02328,0.278787 0.487741,0.39286 0.07158,0.439415 -0.141432,0.48832 v 0.488898 l 0.349794,0.811348 c 0,0 0.347466,0.277623 0.416716,0.207783 0.06927,-0.06984 0.762444,0.439994 0.856746,0.601237 0.09312,0.162385 0.949277,1.182666 0.949277,1.230377 0,0.04539 0.139683,0.27762 0.139683,0.27762 l 0.416716,1.414319 c 0,0 2.017291,1.668058 2.063846,1.599382 0.04657,-0.06752 2.156378,1.505695 2.156378,1.505695 0,0 1.694841,-0.832276 1.672142,-0.761866 -0.02508,0.0681 1.434633,-0.07042 1.434633,-0.07042 l 0.882333,0.138519 0.64664,0.301489 2.36707,-1.087785 0.46388,-0.351543 1.82988,-0.06693 0.88234,0.343974 c 0,0 0.57911,0.860794 0.57911,0.999916 0,0.139101 0.34803,0.763601 0.39518,0.670491 0.0448,-0.09021 2.06323,-0.183335 2.13425,-0.161218 0.0669,0.0227 0.94867,0.882915 0.94867,0.882915 l -0.046,0.812505 -0.14029,1.435247 -0.27877,0.696082 -0.27528,0.626827 -0.0692,0.440608 c 0,0 2.08304,3.060257 2.08304,3.082956 0,0.0227 0.53372,1.273462 0.53372,1.273462 l 0.62856,1.601732 0.37135,0.902108 -0.37135,0.509862 0.60301,1.556333 -0.20953,1.527815 -0.90446,1.972472 -0.39344,1.459717 0.1158,1.947423 1.08609,2.248909 1.13785,2.573708 0.11581,2.829794 0.90622,1.69018 0.65069,1.36658 0.62509,1.48588 0.32299,0.44061 c 0,0 0.0483,0.74206 -0.0251,0.74206 -0.0681,0 -0.41436,0.025 -0.32124,0.16121 0.0919,0.13852 0.6239,1.06686 0.6239,1.06686 l 0.0227,0.41849 0.7409,0.41498 0.65364,-0.30032 c 0,0 0.6478,-0.11466 0.71821,-0.092 0.0681,0.0227 0.97082,-0.30265 0.97082,-0.30265 l 1.39158,0.20894 0.97433,-0.50928 1.06685,-0.0693 c 0,0 1.83104,-1.78622 1.83104,-1.73966 0,0.0466 1.68898,-2.17792 1.68898,-2.17792 l 0.86196,-0.74383 0.48484,-1.45972 -0.0687,-0.94812 c 0,0 0.16298,-0.49063 0.3236,-0.58259 0.16416,-0.092 1.7385,-1.019108 1.7385,-1.019108 l 0.32769,-1.531285 -0.30381,-1.508008 c 0,0 -0.23281,-0.576766 -0.23281,-0.67049 0,-0.09138 0.16237,-0.511597 0.16237,-0.511597 l 1.53186,-1.367151 c 0,0 0.34688,-0.440608 0.50929,-0.602393 0.16297,-0.1618 1.59761,-0.786878 1.59761,-0.786878 l 0.97606,-0.948699 0.16238,-3.502599 c 0,0 -0.34803,-1.301403 -0.37074,-1.414898 -0.0227,-0.118726 -0.69493,-2.318199 -0.69493,-2.412465 0,-0.09137 -0.23162,-1.437597 -0.25781,-1.555177 -0.0187,-0.111742 0.53199,-1.666323 0.53199,-1.666323 l 0.76768,-1.509164 3.13125,-3.592818 1.76351,-1.41197 2.66505,-4.3609 0.85848,-2.017869 0.18335,-2.037641 -0.55465,-0.09312 c 0,0 -0.27937,0.324185 -0.34866,0.369584 -0.0698,0.04772 -1.66922,0.14085 -1.66922,0.14085 l -1.94803,0.577381 -0.95044,0.348047 -0.92715,-0.971976 0.13853,-0.694925 -1.25018,-1.485886 -1.76294,-1.758855 c 0,0 -0.88404,-0.67396 -0.83632,-0.741479 0.0477,-0.07158 -0.48832,-1.694263 -0.48832,-1.647708 0,0.04657 -0.88003,-0.810155 -0.88003,-0.810155 l -0.0227,-1.555141 -0.95043,-1.551092 -1.04123,-1.903182 c 0,0 -0.88295,-2.180233 -0.97606,-2.296078 -0.0908,-0.115241 -0.43884,-0.693768 -0.32419,-0.671069 0.11585,0.02386 0.95043,-0.09254 0.95043,-0.09254 0,0 1.55225,1.832771 1.55225,1.925302 0,0.09254 0.92951,1.644202 0.92951,1.644202 0,0 0.69435,0.974905 0.69435,0.903301 0,-0.06577 0.16237,0.904458 0.13852,0.976061 -0.0227,0.06984 0.41734,1.13669 0.41734,1.13669 l 1.32233,1.183244 0.27763,0.856168 1.20532,1.321173 0.23342,0.835782 -0.81309,-0.744407 c 0,0 -0.2549,0.418487 -0.16237,0.490055 0.092,0.06751 0.90388,0.926 0.90388,0.926 l 0.39749,1.18093 0.3015,1.114569 0.43884,0.37074 1.29967,-0.254338 0.2299,-0.512176 h 1.27578 l 0.5558,-0.416138 0.69319,-0.09312 c 0,0 0.53433,-0.533717 0.58027,-0.556995 0.0477,-0.02328 2.11098,-0.925421 2.11098,-0.925421 0,0 0.0449,-0.675154 0.13854,-0.675154 0.0931,0 2.15811,-0.648948 2.15811,-0.648948 l 0.20779,-0.787456 0.73974,-0.04656 0.20893,-0.531983 0.71882,-0.439993 0.0902,-1.159967 0.53488,0.160635 0.16352,-0.394595 -0.18505,-0.252014 0.81189,-1.182088 0.0227,-0.419644 -0.78862,-0.718202 -0.36958,-0.393439 c 0,0 -1.25308,-0.140846 -1.30082,-0.233388 -0.0454,-0.09313 -0.53199,-1.206522 -0.53199,-1.206522 0,-0.34572 0.0227,-0.973711 -0.0477,-0.926 -0.0669,0.04598 -0.46158,0.48597 -0.46158,0.48597 l -1.43467,1.322367 -1.25484,0.324185 c 0,0 -0.41556,-0.11582 -0.44,-0.184503 -0.0227,-0.06984 -0.0693,-1.137267 -0.0693,-1.137267 0,0 -0.53541,-0.625671 -0.55641,-0.717624 -0.0227,-0.09312 -0.41849,0.812504 -0.41849,0.812504 0,0 -0.60297,-0.812504 -0.53488,-0.838095 0.0693,-0.02151 -0.27762,-0.810155 -0.27762,-0.810155 l -1.20359,-1.389271 -0.0693,-0.719973 c 0,0 0.57969,-0.627406 0.67164,-0.650683 0.092,-0.0227 0.92655,-0.137937 1.02027,0.164713 0.0931,0.298572 0.78861,1.32233 0.78861,1.460874 0,0.138519 1.06455,1.065086 1.18209,1.041809 0.11406,-0.0227 0.53021,0.208362 0.67165,0.301478 0.13849,0.09254 0.41494,0.254928 0.53198,0.372511 0.11581,0.113492 0.41733,0.04598 0.41733,0.04598 l 0.76534,-0.116984 c 0,0 0.62509,-0.602971 0.65014,-0.486584 0.0203,0.118147 0.73974,0.164127 0.64779,0.324181 -0.0931,0.162971 0.0255,0.627984 0.092,0.766528 0.0721,0.140268 3.19934,0.626827 3.19934,0.626827 l 1.43991,0.185081 c 0,0 1.52666,-0.140268 1.61977,-0.140268 0.092,0 1.06917,0.09487 1.16113,0.0681 0.0908,-0.02039 1.48241,1.508008 1.48241,1.508008 l 1.29848,0.651876 0.29975,-0.02447 -0.73801,0.325348 c 0,0 0.25144,0.579695 0.25144,0.64837 0,0.06984 1.29967,0.997567 1.29967,0.997567 0,0 0.46269,-0.303231 0.53198,-0.303231 0.071,0 0.39517,-0.115242 0.41903,-0.27762 0.0227,-0.161803 -0.071,-0.624514 0.0454,-0.671069 0.11816,-0.04656 0.27703,-0.18683 0.30441,0.02328 0.0203,0.207201 0.30322,2.201197 0.25491,2.22274 -0.0506,0.02736 0.39347,1.508585 0.39347,1.577875 0,0.06984 0.57969,1.879326 0.6012,1.948616 0.0239,0.06868 0.97313,2.108666 1.04242,2.178498 0.0681,0.06984 0.99757,2.479406 0.99757,2.479406 0,0 0.53433,0.997567 0.51044,1.161123 -0.0227,0.162386 0.18626,0.949856 0.32594,1.043002 0.1385,0.09254 0.76303,0.324767 0.76303,0.324767 0,0 0.34687,-0.303232 0.37247,-0.394017 0.0211,-0.09196 0.27763,-0.509284 0.36785,-0.647792 0.0937,-0.141432 0.5151,-0.185081 0.53603,-0.0937 0.0215,0.0937 0.51102,0.324763 0.51102,0.324763 l -0.0506,1.134954 c 0,0 0.0954,0.739745 0.16352,1.022616 0.0734,0.277623 0.65069,0.509284 0.65069,0.509284 l 0.69554,-0.625671 0.30031,-1.069171 -0.69319,-1.04123 c 0,0 -0.53199,-0.579116 -0.60236,-0.650683 -0.0704,-0.06694 -0.51449,-0.136195 -0.51449,-0.136195 0,0 0.0506,0.232229 0.0954,0.323021 0.0483,0.09313 -0.0954,0.117569 -0.0954,0.117569 l -0.53198,-0.207783 0.0931,-0.608213 c 0,0 0.39864,-0.0681 0.46677,-0.0681 0.0675,0 -0.0278,-0.926578 -0.0278,-0.926578 0,0 0.14375,-1.644202 0.19031,-1.690757 0.0466,-0.0483 -0.0704,-1.669215 -0.2561,-1.737926 -0.18334,-0.06983 0,-0.602394 0.0937,-0.626249 0.0919,-0.02447 0.99579,-0.34747 0.99579,-0.34747 l 0.50813,-0.996989 c 0,0 0.90677,-0.627405 0.97603,-0.67396 0.0681,-0.04656 1.11052,-1.157076 1.11052,-1.298475 0,-0.136776 0.11871,-0.484813 0.39517,-0.534296 0.27878,-0.04365 0.79038,-0.414981 0.79038,-0.414981 v -0.76595 c 0,0 0.092,-0.37074 0.30035,-0.462693 0.20659,-0.09312 0.7409,-0.163545 0.7409,-0.163545 0,0 0.11756,0.302068 0.0466,0.347469 -0.0704,0.04772 1.1815,-0.347469 1.1815,-0.347469 0,0 0.55581,0 0.64895,-0.02212 0.0949,-0.02447 0.37251,-0.439415 0.37251,-0.439415 0,0 -0.11875,-0.37309 0.0425,-0.281115 0.16528,0.09603 0.55989,0.512175 0.51449,0.582008 -0.0495,0.06635 0.22987,0.531404 0.16237,0.716467 -0.0716,0.185084 1.0657,1.43991 1.0657,1.43991 0,0 0.55407,-0.25667 0.50925,-0.07101 -0.0483,0.185084 -0.16122,0.766528 -0.16122,0.766528 0,0 0.34807,0.230479 0.48543,0.254346 0.13968,0.0227 0.53371,0.787456 0.53371,0.787456 0,0 -0.0931,0.693768 -0.0931,0.786877 0,0.09312 0.0501,0.766528 0.0227,0.882915 -0.0227,0.115245 0.95043,0.327099 0.95043,0.327099 0,0 0.76946,-0.630912 0.81601,-0.701901 z m -68.74065,-34.450206 0.76653,-0.649526 0.16353,-0.626828 c 0,0 0.71708,0.116991 0.73859,0.209533 0.0227,0.09137 0.188,-0.209533 0.37016,-0.04598 0.18741,0.1618 0.41964,0.136769 0.4435,0.277037 0.0203,0.139687 0.16122,0.302072 0.18394,0.208944 0.0227,-0.09312 0.0227,-0.394017 0.0227,-0.394017 0,0 -0.20663,-0.115238 -0.32419,-0.187409 -0.117,-0.06868 -0.0926,-0.277619 0.0239,-0.344556 0.11406,-0.06926 0.43884,-0.258412 0.53252,-0.187408 0.0931,0.06752 0.51102,-0.09254 0.51102,-0.09254 0,0 0.0692,-0.141435 0.11466,-0.207783 0.0483,-0.07218 0.27993,-0.69666 0.27993,-0.69666 0,0 -0.16528,-0.06926 -0.21068,-0.27879 -0.0466,-0.207194 0.25609,-0.810734 0.32709,-0.832854 0.0663,-0.02386 0.97433,-0.558152 0.97433,-0.558152 0,0 0.34687,-0.371897 0.20778,-0.48597 -0.14029,-0.117573 -1.1827,-0.626828 -1.1827,-0.742673 0,-0.115819 -0.11581,-0.71878 -0.0483,-0.949277 0.0704,-0.231061 0.48886,-0.673382 0.55758,-0.766528 0.0704,-0.09021 0.58027,-0.717045 0.67341,-0.696081 0.0931,0.02501 0.44,-0.04656 0.53076,-0.09079 0.0949,-0.04831 0.90388,-0.418488 0.76537,-0.441187 -0.13854,-0.02328 0.0471,-0.439994 -0.0239,-0.417295 -0.0693,0.0227 0.071,-0.532561 0.23337,-0.578537 0.16122,-0.04597 0.43884,-0.25492 0.5116,-0.25492 0.0652,0 0.62567,0.02328 0.76418,0.04598 0.13853,0.02328 0.62509,-0.20778 0.69435,0 0.0693,0.208365 0.25319,0.254924 0.0931,0.324188 -0.16237,0.06984 -0.53314,0.394596 -0.76533,0.601815 -0.23047,0.207784 -0.92774,0.674575 -1.02088,0.695503 -0.0908,0.02447 -0.1414,0.06927 -0.32534,0.186831 -0.18506,0.113491 -0.18506,-0.1618 -0.22932,0.277044 -0.0483,0.441187 -0.1158,0.927157 -0.025,1.091291 0.0931,0.161804 0.16121,0.416717 0.0692,0.53314 -0.0919,0.116405 -0.0239,0.185662 0,0.394017 0.0238,0.208362 0.30676,0.300322 0.32654,0.393439 0.0215,0.09254 0.39228,0.277626 0.39228,0.277626 0.18505,-0.02096 0.39868,-0.04482 0.44115,0.04831 0.0483,0.09254 0.14144,0.04656 0.14144,0.04656 l 0.39051,-0.09487 c 0,0 0.39637,-0.231646 0.53607,-0.208365 0.13849,0.02328 0.32299,-0.04598 0.48535,0 0.16241,0.04656 0.85675,-0.185084 0.95221,-0.162382 0.092,0.02559 0.7392,-0.254345 0.78745,-0.161221 0.0466,0.09254 0.39464,0.06926 0.39464,0.06926 l 0.27878,0.208362 c 0,0.138522 -0.27878,0.462693 -0.34687,0.511018 -0.0705,0.0454 -0.30151,0.233393 -0.44061,0.185085 -0.13854,-0.04481 -0.23397,0.02328 -0.41907,-0.04481 -0.18565,-0.07101 -0.53368,-0.165295 -0.6274,-0.165295 -0.0925,0 -1.17974,0.258416 -1.17974,0.258416 l -0.55465,0.160635 -0.096,0.325935 0.0704,0.06926 0.55642,0.346884 c 0,0.116987 0.23341,0.04656 0.18509,0.324767 -0.0454,0.277623 -0.0692,0.393439 -0.13853,0.531983 -0.071,0.139686 -0.34803,0.394596 -0.41733,0.231646 -0.0692,-0.161807 -0.41556,-0.463307 -0.50925,-0.532561 -0.0908,-0.06926 -0.369,-0.02328 -0.53549,-0.02328 -0.16121,0 -0.48655,0.232228 -0.48655,0.487163 0,0.254342 -0.16122,0.582007 -0.0931,0.832854 0.0705,0.258419 0.37306,0.5832 0.23457,0.744407 -0.14144,0.162964 -0.46388,0.278787 -0.60243,0.347463 -0.13849,0.06985 -0.46558,0.301489 -0.58027,0.347466 -0.11581,0.04598 -0.46385,0.18508 -0.53429,0.02328 -0.0681,-0.162971 -0.20778,-0.417331 -0.20778,-0.417331 0,0 -0.11581,-0.230475 -0.16413,-0.161214 -0.0413,0.06693 -0.30031,0.09312 -0.30031,0.09312 l -0.60008,0.231068 c 0,0 -0.32709,0.231057 -0.39517,0.277623 -0.0716,0.04598 -0.41852,0.04598 -0.55761,0.115241 -0.13853,0.07042 -0.55642,0.417873 -0.67107,0.255502 -0.11756,-0.161221 -0.1845,0.115823 -0.32769,-0.139097 -0.13559,-0.254345 -0.0914,-0.533139 -0.2549,-0.485428 -0.16006,0.04657 -0.53372,0.138526 -0.57738,0.231065 -0.0483,0.09253 -0.0943,0.09253 -0.1839,0.18508 -0.0931,0.09196 -0.76653,0.1618 -0.76653,0.1618 v -0.04598 z m 19.20893,17.16709 c -0.17344,0.452825 -0.17344,1.042966 -0.41845,1.495791 -0.24444,0.449897 -0.34863,0.69319 -0.52147,0.974868 -0.17463,0.274713 -0.17463,0.658852 -0.45167,0.832276 -0.27762,0.175188 -0.69434,0.417873 -0.93821,0.244445 -0.24154,-0.174609 -1.21639,-0.139104 -1.32349,-0.104184 -0.10304,0.03488 -1.28395,-0.03495 -1.42422,0.206623 -0.13853,0.244445 -1.03946,0.071 -1.18325,0 -0.13849,-0.06868 -1.84148,-0.765372 -1.98002,-0.798517 -0.1385,-0.03434 -1.01152,-0.416138 -1.1518,-0.520344 -0.13854,-0.105348 -1.00632,-0.211278 -1.04008,-0.314874 -0.0354,-0.104766 0.0692,-0.243288 -0.0722,-0.208365 -0.13619,0.03199 -1.14656,0.347466 -1.2851,0.449319 -0.14144,0.108254 -0.4499,0.385885 -0.4499,0.385885 0,0 -0.42076,0.416716 -0.38588,0.729262 0.0374,0.313128 0.41845,0.556417 0.27997,0.729841 -0.13853,0.173445 -0.62509,0.3818 -0.62509,0.3818 0,0 -0.52501,-0.486006 -0.69608,-0.55526 -0.17404,-0.06984 -1.80661,-0.31255 -1.80661,-0.31255 l -0.6612,-0.764757 c 0,0 -1.04296,-0.696081 -1.14771,-0.731034 -0.10535,-0.03434 -1.25253,0 -1.42827,-0.138522 -0.17463,-0.141428 -0.73042,-0.87012 -1.00747,-0.834625 -0.27882,0.03434 -0.17348,-0.417331 -0.0693,-0.486585 0.10359,-0.06926 0.41672,-0.660587 0.38242,-0.764757 -0.0362,-0.105348 0.17343,-0.694346 -0.17348,-0.86777 -0.34743,-0.178101 -0.10534,-0.768841 -0.10534,-0.768841 0,0 0.34866,-0.06925 0.20953,-0.06925 -0.13909,0 -0.66058,0.03495 -0.80083,-0.138519 -0.13678,-0.174027 -0.17578,-0.242707 -0.31081,-0.174027 -0.142,0.07043 -1.01152,0.208943 -1.11457,0.174027 -0.10535,-0.03434 -0.93822,0.06926 -1.0773,0.06926 -0.13854,0 0.035,0.03549 -0.13854,0 -0.17633,-0.03495 -0.87243,0.27995 -0.90619,0.416716 -0.0318,0.139104 -0.72814,-0.03199 -0.83347,0 -0.1059,0.03495 -1.11341,0.03495 -1.11341,0.03495 l -1.67037,0.278209 c 0,0 -1.11226,0.559886 -1.14659,0.733346 -0.035,0.174028 -0.38296,0.452247 -0.48655,0.51973 -0.10304,0.07043 -0.72869,0 -0.76711,-0.103599 -0.0326,-0.104181 -1.147207,0.03611 -1.147207,0.03611 0,0 -0.451054,-0.245027 -0.59014,-0.139682 C 99.18727,44.341581 99.18727,43.784 99.18727,43.784 l 0.173478,-0.413825 0.625056,-0.418487 1.497566,-0.280532 0.73045,-0.484814 0.44986,-0.17402 0.27707,-0.729263 c 0,0 0.52208,-0.104177 0.48716,-0.210107 -0.0342,-0.104181 -0.17113,-0.591333 -0.17113,-0.591333 l 1.00632,-1.563888 1.42538,-0.696081 0.24384,-0.487163 c 0,0 -0.13675,-0.625093 -0.0342,-0.730998 0.10358,-0.104763 1.043,-0.31371 1.043,-0.31371 l 1.18321,0.382957 c 0,0 0.62509,-0.416138 0.76363,-0.486006 0.13854,-0.07043 0.80083,-0.451633 0.80083,-0.451633 0,0 0.0675,-0.31255 0.20722,-0.278205 0.1391,0.03434 0.73042,-0.10418 0.80145,0.174021 0.0692,0.278205 0.59075,1.148328 0.59075,1.148328 l 0.79913,0.835204 0.7665,0.591333 0.93937,0.346305 c 0,0 0.55526,0.487163 0.65885,0.522079 0.10419,0.03376 0.62509,0.626828 0.62509,0.626828 l 0.27763,0.484813 c 0,0 -0.17284,0.38415 -0.31197,0.55873 -0.1385,0.171697 -0.5558,0.625671 -0.66059,0.588442 -0.10475,-0.03199 -0.90619,-0.171115 -0.90619,-0.171115 l -0.86838,0.103603 c 0,0 -0.13678,0.208944 0.10594,0.382378 0.24328,0.173439 0.52092,0.139683 0.76302,0.278202 0.24734,0.138522 0.87243,0.418487 0.87243,0.418487 0,0 0.41849,0.06751 0.41849,0.171114 0,0.104763 0.13734,-0.278205 0.10244,-0.520922 -0.0342,-0.242703 -0.0705,-0.554682 0.17343,-0.625093 0.24503,-0.06926 0.62571,0 0.62571,-0.105344 0,-0.103596 0.1065,-0.244446 0.1065,-0.244446 l 0.31252,-0.379487 -0.035,-0.242699 0.31487,-0.247359 c 0,0 -0.17343,-0.204288 -0.31487,-0.380643 -0.13734,-0.174606 -0.27763,-0.278787 -0.17694,-0.452825 0.10653,-0.17286 0.45282,-0.417295 0.63037,-0.27762 0.17283,0.138523 0.69319,0.20778 0.65824,0.382957 -0.033,0.172278 0,0.414981 0.071,0.278205 0.0669,-0.140268 0.035,-0.69666 0.035,-0.69666 0,0 -0.27882,-0.381221 -0.52266,-0.416138 -0.24097,-0.03611 -0.87189,-0.348055 -1.04415,-0.417294 -0.17285,-0.06984 -0.48482,-0.242703 -0.48482,-0.242703 0,0 0.13734,-0.382379 -0.0681,-0.347466 -0.21068,0.03434 -0.83578,-0.07159 -0.83578,-0.174024 0,-0.106505 -0.62683,-0.594225 -0.65885,-0.696082 -0.035,-0.106512 -0.59311,-0.870698 -0.59311,-0.870698 0,0 -0.31487,-0.312549 -0.34802,-0.416716 -0.0362,-0.104763 -0.0693,-0.278783 -0.13914,-0.555838 -0.0716,-0.278209 0.69439,-0.973712 0.66005,-0.87012 -0.0354,0.102435 0.17459,0.243285 0.31543,0.555838 0.13678,0.314293 0.69377,0.835204 0.76364,1.04358 0.0686,0.207784 0.83578,0.800866 1.00686,0.868385 0.17693,0.06868 0.27762,0.279365 0.62682,0.417873 0.34922,0.139682 0.31548,0.206619 0.76653,0.416716 0.4499,0.208951 0.52092,0.280536 0.58783,0.382379 0.0721,0.105926 0.34803,0.07159 0.45452,0.245031 0.10363,0.17286 0.24273,0.208365 0.24273,0.3818 0,0.172856 0.14144,0.172856 0.0681,0.520922 -0.0681,0.347466 -0.17168,0.451669 -0.13619,0.520922 0.035,0.07101 0.66117,1.35844 0.90504,1.35844 0.24272,0 0.97198,0.278205 0.86777,0.693768 -0.10359,0.416716 0.45109,0.973711 0.45109,0.973711 0,0 0.46504,0.02971 0.78626,0.08323 0.0136,-0.242707 -0.0378,-0.632069 0.22586,-0.779324 0.30962,-0.17402 0.76244,-0.349208 0.69199,-0.520922 -0.071,-0.173442 -0.14024,-0.487741 -0.41729,-0.694925 -0.27472,-0.207783 -0.55646,-0.316037 -0.62567,-0.660008 -0.0681,-0.348626 -0.17404,-0.802601 0.13853,-0.662322 0.31252,0.13794 0.59129,0.802022 0.73334,0.346884 0.13678,-0.451054 0.48366,-0.764757 0.72634,-0.660009 0.24623,0.104178 0.69843,0.27762 0.66351,0.416717 -0.0354,0.1391 0.31257,1.253654 0.31257,1.253654 0,0 0.13849,0.105345 0.20778,0.625671 0.0693,0.520308 0.52092,0.660009 0.45283,0.834047 -0.0704,0.172275 -0.27998,0.276459 0.27877,0.347463 0.55349,0.06985 1.07792,0.17286 1.07792,0.31196 0,0.139686 0.45163,0.211861 0.52147,0.314292 0.0681,0.104763 0.48543,0.31255 0.55584,0.104763 0.0692,-0.206616 0.20893,-0.627406 0.31312,-0.557573 0.10419,0.07217 0.97314,0.07217 1.04355,0.351535 0.0721,0.274135 0.66174,0.274135 0.66174,0.348056 0,0.06693 0.5215,-0.174028 0.5215,-0.174028 0,0 0.7293,-0.557574 0.93822,-0.453403 0.20778,0.104177 0.79732,-0.384728 0.7281,0.06752 -0.0681,0.452247 0.38531,0.870698 0.21069,1.321752 z m 3.47639,-6.12044 c -0.10244,0.105344 -0.76533,0.764756 -0.76533,0.764756 l -1.32179,-0.174605 h -0.90327 l -0.76479,-0.277038 c 0,0 -0.52266,-0.173445 -0.62625,-0.27879 -0.10594,-0.104185 -0.76418,-0.348634 -0.76418,-0.348634 l -1.3922,0.31371 -1.07907,0.313714 -0.38007,0.346295 -1.28745,-0.311964 -0.76417,-0.3818 -0.41961,-0.453404 h 0.38295 l -0.13618,-0.555838 0.0669,-0.3818 0.34632,-0.210108 0.24504,-1.007471 0.41848,-0.174024 0.10303,-0.520308 c 0,0 0.34863,-0.314874 0.45398,-0.419066 0.10419,-0.103017 0.45167,-0.591911 0.45167,-0.591911 l 0.83228,0.34863 c 0,0 0.86954,0.105348 0.73099,0.140846 -0.1414,0.03376 -0.55757,0.522079 -0.55757,0.522079 0,0 0.31312,0.171118 0.45687,0.277627 0.13563,0.104184 0.45052,0.276459 0.38007,0.486548 -0.0704,0.207787 0.5215,0.173446 0.5215,0.173446 l 0.20893,-0.347466 0.97198,-0.242703 0.34806,-0.17577 -0.55699,-0.171114 c 0,0 -0.48655,-0.175766 -0.41617,-0.280529 0.0704,-0.105348 0.5215,-0.800287 0.5215,-0.800287 0,0 1.14832,-0.346306 1.25134,-0.346306 0.10184,0 0.80202,-0.139097 0.80202,-0.139097 0,0 -0.55642,0.555838 -0.62798,0.661165 -0.0722,0.105352 0.0362,0.450476 -0.13854,0.591333 -0.17228,0.138519 -0.41906,0.279369 -0.5215,0.314874 -0.1065,0.03199 -0.0366,0.381222 0.0681,0.416716 0.10705,0.0355 0.45336,0.173446 0.45336,0.173446 l 1.53071,0.798516 0.93822,0.938217 0.73273,0.594225 c 0,-0.0025 0.31022,0.310218 0.20603,0.413824 z m 8.83494,4.588613 -0.87305,0.104181 c 0,0 -0.7636,-0.313132 -0.79621,-0.451054 -0.0378,-0.138522 -0.21069,-0.451632 -0.31547,-0.382378 -0.10359,0.07043 -0.45105,0.104766 -0.55465,0.07043 -0.10359,-0.03549 -0.48947,-0.348045 -0.48947,-0.487163 0,-0.137941 -0.10595,-0.450476 0.0692,-0.591333 0.17578,-0.138523 0.52319,-0.380644 0.45282,-0.487742 -0.0669,-0.103017 -0.10534,-0.551754 -0.10534,-0.625092 0,-0.06984 0,-0.13794 0.21068,-0.173442 0.20778,-0.03549 0.20778,-0.03549 0.20778,-0.03549 0,0 0.0693,-0.207195 -0.0354,-0.311965 -0.10359,-0.104759 -0.73157,-0.556995 -0.80086,-0.660587 -0.0652,-0.103599 -0.83459,-0.833432 -0.93818,-0.941108 -0.10304,-0.101857 -0.55584,-0.414403 -0.55584,-0.414403 l -0.24328,-0.523236 0.20778,-0.660008 -0.62394,-0.139097 -0.13849,-0.450476 V 35.54387 l 0.65824,-0.763601 c 0,0 0.45398,-0.242699 0.557,-0.176348 0.10419,0.07217 0.34631,-0.207783 0.38646,-0.311964 0.0306,-0.106505 0.69084,-0.558152 0.83228,-0.627406 0.13794,-0.06868 0.3806,-0.3818 0.5215,-0.207783 0.13734,0.172856 1.00631,0.452825 1.00631,0.452825 0,0 0.31543,0.06867 0.27758,0.206034 -0.0338,0.141432 -0.31252,1.045893 -0.31252,1.045893 0,0 -0.62394,-0.174028 -0.69319,-0.139104 -0.0675,0.03322 -0.55465,0.208943 -0.45106,0.486584 0.1036,0.278202 -0.3818,0.104181 -0.34807,0.243285 0.033,0.137937 0.10364,0.346881 0.20898,0.416717 0.10475,0.06926 0.69319,0.3818 0.7636,0.590754 0.0681,0.210115 1.04126,0.835782 1.04126,0.835782 0,0 0.10535,0.06868 0.0704,0.210108 -0.0326,0.138518 -0.10418,0.868385 0,0.868385 0.1042,0 0.34632,-0.03549 0.34632,-0.03549 0,0 0.31603,-0.65943 0.4208,-0.589598 0.10359,0.06868 0.52146,0.381222 0.62567,0.624514 0.10184,0.243285 0.31253,0.485392 0.20778,0.55526 -0.1065,0.06868 -0.59191,0.03488 -0.73042,0.03488 -0.13678,0 -0.38296,-0.17402 -0.45221,-0.104762 -0.0716,0.06985 -0.20778,0.243288 -0.10479,0.451054 0.10479,0.210689 0.31487,0.522657 0.42022,0.594224 0.10244,0.06809 0.20548,0.03145 0.52093,0.313128 0.31257,0.278205 0.41617,0.41556 0.31257,0.729263 -0.10479,0.312539 -0.0354,0.591333 0,0.694346 0.0342,0.104181 0.10359,0.347463 0.17458,0.451669 0.0675,0.104759 0.0675,0.242699 0.0675,0.242699 l -1.00577,0.174021 z M 130.66864,15.002797 c -0.0123,-0.0047 -0.0255,-0.0047 -0.0302,-0.0047 -0.0112,0.0047 0,0.0047 0.0302,0.0047 z m 84.49628,7.206599 c 0,-0.0052 0,-0.01457 -0.008,-0.02154 0.006,0.02385 0.006,0.03549 0.008,0.02154 z M 152.45687,10.476714 c 0,0 0.0147,-0.0036 0.0425,-0.01688 -0.0239,-0.02154 -0.0402,-0.03784 -0.0425,-0.0483 -0.0227,-0.09487 0,0.06519 0,0.06519 z m -9.85314,77.664862 c 0,0 -0.74379,0.836939 -0.78803,0.977796 -0.0489,0.136777 -0.64898,0.878831 -0.74502,1.109906 -0.0931,0.231639 -0.83228,0.740901 -0.83228,0.740901 l -1.34506,0.556995 c 0,0 -0.4627,0.04656 -0.32475,0.234549 0,0 -0.0931,0.368427 -0.41556,0.786878 -0.32594,0.416138 0,0.971976 0,0.971976 l 0.18335,0.927157 v 0.882337 c 0,0 -0.27882,0.973711 -0.41733,1.019109 -0.13738,0.04773 -0.36958,0.325349 -0.50813,0.789806 -0.14084,0.462692 -0.0931,0.787456 -0.0931,0.787456 0,0 0.0931,0.695503 -0.0477,0.835782 -0.14144,0.138522 0.23166,0.832854 0.37309,1.067435 0.13849,0.229901 0.50983,0.368431 0.50983,0.368431 0,0 0.32243,0.27936 0.46269,0.37074 0.13853,0.0931 0.83347,-0.1816 0.83347,-0.1816 0,0 0.51159,-0.23164 0.64894,-0.32651 0.13969,-0.09487 0.23341,-0.138522 0.50929,-0.60239 0.27993,-0.463885 0.0949,-0.325349 0.1385,-0.463885 0.0495,-0.138523 0.32418,-0.743251 0.46562,-1.530707 0.13853,-0.788649 0.18624,-0.742058 0.37074,-1.437019 0.1839,-0.696081 0.41617,-0.882915 0.46272,-1.436404 0.0466,-0.556995 0.0919,-0.790383 0.13734,-0.977217 0.0477,-0.183917 0.51333,-0.878831 0.55757,-1.343873 0.0454,-0.461536 0.0454,-0.694925 -0.0442,-0.878831 -0.092,-0.187997 0.55641,-0.04947 0.64721,-0.327094 0.0948,-0.278787 0,0 0.0477,-0.136777 0.0471,-0.141432 0.0949,-1.02088 0.0949,-1.530128 0,-0.509862 -0.51044,-1.301402 -0.56166,-1.437597 -0.0425,-0.139686 -0.32012,0.182749 -0.32012,0.182749 z m 46.31988,-6.721894 c 0.14144,-0.37074 0,-0.417295 -0.0914,-0.602393 -0.092,-0.185085 0.18331,-1.018532 0.55581,-1.344452 0.37074,-0.325348 -0.18506,-0.373089 -0.18506,-0.373089 l -0.55645,0.09312 -0.51041,-0.973712 c 0,0 -0.88118,-0.693189 -1.15823,-0.880023 -0.27882,-0.183921 0.41437,-0.556995 0.41437,-0.556995 0,0 -1.5726,-1.483574 -1.75886,-1.483574 -0.18509,0 -1.11456,-0.740901 -1.25307,-0.789227 -0.13853,-0.04482 -0.87999,-1.297896 -0.87999,-1.297896 l -3.15456,-1.575527 c 0,0 -0.41617,0.372475 -0.41617,0.555839 0,0.185666 0.55699,0.278205 0.55699,0.278205 0,0 0.18394,0.138522 0.36959,0.232228 0.18505,0.09312 0.7409,0.555838 0.78807,0.882337 0.0448,0.323021 0.13965,0.509283 0.46385,0.785721 0.32653,0.27879 0.88002,0.420222 0.88002,0.420222 0,0 0.23457,0.786878 0.42022,0.880023 0.18391,0.09313 0.32419,0.50867 0.4144,0.742058 0.0937,0.231647 0.97603,1.668636 0.92597,2.178498 -0.0442,0.510441 0.65303,1.716962 0.65303,1.716962 0,0 1.57668,1.250185 1.62324,1.437019 0.0454,0.183924 1.2007,0.509862 1.2007,0.509862 0,0 0.55931,-0.465042 0.69785,-0.835204 z m 10.75785,-9.506147 c 0,-0.185081 -0.5104,-0.601237 -0.65068,-0.788035 -0.13854,-0.18683 -0.97198,-0.928313 -1.15708,-1.066857 -0.1839,-0.138522 0,0 -0.27762,0.512175 -0.27763,0.509284 -0.60352,1.111641 -0.7438,1.157039 -0.13968,0.04656 -1.15707,0.694925 -1.43698,1.01911 -0.27762,0.324185 -0.83227,1.159967 -1.01737,1.024351 -0.1851,-0.141432 -0.97722,0.598309 -0.97722,0.598309 l -0.41614,1.020266 -1.29905,-0.276463 0.0919,0.418488 c 0,0 -0.41498,0.646056 -0.32184,0.788034 0.0931,0.139108 0,0.650105 0.13849,0.925422 0.13738,0.280536 0.27763,0.465042 0.50929,0.650104 0.23166,0.185085 0.27762,0.788035 0.13853,1.25192 -0.13913,0.463886 0.18681,0.555839 0.37074,0.743829 0.18506,0.183924 0.60178,0.231646 0.78804,0.09022 0.18509,-0.139683 0.55699,-0.183335 0.79158,-0.04481 0.22696,0.138522 0.83343,0.138522 1.01737,0.37074 0.18506,0.231642 0.9277,0.09196 1.06509,0.231642 0.14144,0.138526 0.88291,-0.139682 1.06685,-0.327676 0.18331,-0.181586 0,-0.551754 0,-1.157039 0,-0.602394 0.0931,-0.555839 0.41961,-0.788071 0.32419,-0.231642 0.55584,-0.417294 0.60124,-0.739744 0.0483,-0.326509 0.14028,-0.882337 0.14028,-1.161124 0,-0.278786 0.74206,-0.231064 0.87945,-0.32477 0.14315,-0.09312 -0.0931,-0.277623 -0.0931,-0.416138 0,-0.140847 -0.60242,-0.788649 -0.73974,-1.020881 -0.13853,-0.233388 0.23046,-1.392199 0.46092,-1.577261 0.23516,-0.18567 0.65126,-0.927157 0.65126,-1.112834 z m -6.49129,12.472571 c 0.13794,0.04656 0.46212,0.04656 1.15531,0.231643 0.69958,0.18508 1.34853,0.23281 1.43991,0.41733 0.0931,0.183914 0.69319,0 0.97487,-0.04541 0.27763,-0.04772 0.92892,-0.650683 1.34506,-0.186241 0.41787,0.463886 1.25076,0.138519 1.39043,0.231646 0.13854,0.09021 0.55931,-0.231646 1.06628,-0.183924 0.51098,0.04424 0.55757,0.183924 0.69608,0.183924 0.13849,0 0.60236,0.139683 0.83459,0.09021 0.23226,-0.04482 0.50928,-0.322443 0.92715,-0.274713 0.41965,0.04423 1.52898,-0.327098 1.52898,-0.327098 0,0 0,0.04714 -0.27473,0.232228 -0.27993,0.185081 -1.20768,0.879445 -1.20768,0.879445 0,0 -0.13969,-0.09138 -0.1868,0.187991 -0.0448,0.277626 -0.32244,0.835203 -0.0448,0.600658 0.27938,-0.228726 1.25308,-1.064508 1.48531,-1.249607 0.22932,-0.185084 0.32244,-0.279372 0.55465,-0.418487 0.23165,-0.138522 0.7409,-0.27879 0.7409,-0.27879 l 0.32653,-0.231643 c 0,0 -0.27937,-0.183917 -0.41964,-0.138515 -0.13619,0.0483 -0.37074,-0.183921 -0.69319,-0.0454 -0.32594,0.138519 -1.20533,0.277623 -1.20533,0.277623 0,0 -0.557,0.09371 -0.88118,-0.04482 -0.32419,-0.138519 -0.69724,-0.371318 -0.8352,-0.186827 -0.13853,0.186827 -0.92662,0.417295 -1.06805,0.417295 -0.13675,0 -0.6478,-0.04656 -1.01854,-0.137941 -0.37131,-0.09196 -0.46442,-0.09196 -0.64952,-0.09196 -0.18506,0 -0.18506,-0.138515 -0.69493,-0.186826 -0.51159,-0.04539 -0.65299,-0.183917 -0.78687,-0.138519 -0.14375,0.04831 -0.37074,0.09312 -0.55584,0.18683 -0.18741,0.09022 -0.74611,0.09022 -0.88115,-0.04831 -0.14144,-0.138519 -1.53363,-0.416138 -1.53363,-0.416138 0,0 -0.18395,-0.231643 0.23456,-0.37074 0.4161,-0.138515 0.32534,-0.138515 0.27644,-0.323017 -0.0454,-0.188573 -0.74268,-0.188573 -0.92543,-0.138519 -0.18509,0.04307 -0.65184,0.138519 -0.83693,-0.05005 -0.18391,-0.181589 -0.74091,-0.650683 -0.92485,-0.371318 -0.18681,0.278787 -0.0931,0.650683 -0.27994,0.605285 -0.1839,-0.0454 -1.43875,0.09196 -1.43875,-0.0454 0,-0.138519 -0.32419,-0.511597 -0.46389,-0.559887 -0.13853,-0.04481 -0.092,-0.183338 -0.32303,-0.279372 -0.23281,-0.08789 -0.6955,0.04773 -0.6955,0.04773 l -0.46273,0.0483 -0.55757,0.647791 c 0,0 1.29847,0.14085 1.43759,0.325349 0.1385,0.186248 0.83459,0.740901 0.83459,0.740901 0,0 0.92546,0.231643 1.15881,0.277627 0.23222,0.04772 1.29906,0.09254 1.4376,0.139682 z m -1.52835,-26.01106 c -0.14379,-0.09196 -0.5116,-0.09196 -0.5116,-0.09196 l -0.46447,0.184499 -0.23161,-0.09254 -0.5116,0.696659 c 0,0 0.13965,0.786878 0.27878,0.786878 h 0.64895 l 0.51217,-0.370161 0.27938,-0.694347 c 0,0 0.13559,-0.32593 0,-0.419065 z m 7.50913,-1.854313 0.27878,-0.557574 c 0,0 0.13968,-0.556417 0.1845,-0.694925 0.0471,-0.141435 0.23046,-0.557573 0.0949,-0.789227 -0.13969,-0.231643 -0.0477,-0.55526 -0.13969,-0.740901 -0.0937,-0.18392 -0.13968,-0.463307 -0.13968,-0.463307 l -0.46389,0.184502 c -0.1851,0.185088 -0.46273,1.019688 -0.46273,1.019688 0,0 -0.18565,0.837517 -0.0471,1.018531 0.13849,0.189158 0.50983,0.697275 0.50983,0.697275 l 0.1851,0.32593 z m 5.84176,13.955241 c 0.41733,0.140264 0.557,0.04947 0.50929,-0.140847 -0.0454,-0.185084 -0.1851,-1.157075 -0.27763,-1.526622 -0.0931,-0.37074 0.5558,-0.650683 -0.13853,-1.205365 -0.69435,-0.55873 -0.6478,-0.509284 -0.69435,-0.55873 -0.0472,-0.04656 -0.0472,-0.509284 -0.0472,-0.509284 0,0 0.13853,-0.462693 0.0472,-0.601236 -0.092,-0.138519 -0.18566,-0.417295 -0.27878,-0.555839 -0.0931,-0.139683 -0.0931,-0.185077 -0.37193,-0.185077 -0.27759,0 -0.27759,-0.325353 -0.4627,-0.280536 -0.1839,0.04656 -0.64898,0.416716 -0.32534,-0.136188 0.32534,-0.559886 0.14085,-0.651876 0.14085,-0.744985 0,-0.09195 -0.23457,-0.230479 -0.46505,-0.276459 -0.2305,-0.04772 -0.41791,-0.325345 -0.74151,-0.232807 -0.32419,0.09545 -0.46273,-0.137355 -0.64895,-0.137355 -0.1851,0 -0.27763,-0.233388 -0.32304,-0.509283 -0.0477,-0.27878 0.0454,-0.835782 0.0454,-0.973712 0,-0.14085 0.27763,-0.557573 0.27763,-0.557573 0,0 0.0931,-0.187416 0,-0.510441 -0.092,-0.323603 -0.27763,-0.880601 -0.27763,-1.111677 0,-0.231646 -0.51217,-0.463885 -0.51217,-0.463885 l -0.60355,0.231646 -0.23046,2.040569 c 0,0 -0.41672,0.137355 -0.36901,0.322435 0.0437,0.18683 0.0437,1.068014 0.27703,1.253077 0.2305,0.183335 0.60355,0.416138 0.60355,0.416138 0.0908,0.232806 -0.13738,0.694346 -0.13738,0.694346 0,0 0.55352,0.651876 0.60301,0.838095 0.0442,0.183917 0.32418,0.09022 0.32418,0.09022 0,0 -0.13853,-1.251342 0.13734,-1.020881 0.27879,0.232807 1.01969,0.189154 1.06509,0.465042 0.0483,0.278787 0.55757,0.555839 0.64779,0.835782 0.0931,0.278209 0.69731,0.371318 0.65303,0.600659 -0.0477,0.23281 -0.41964,0.23281 -0.65303,0.278783 -0.22931,0.04657 -0.97198,-0.508091 -0.97198,-0.508091 0,0 -0.18509,-0.04656 -0.23046,0.229897 -0.0454,0.27879 0.0919,0.973133 0.27762,1.204786 0.1839,0.233393 0.37074,0 0.46443,0.138526 0.0931,0.141429 0,0.465621 0.13969,0.651876 0.13678,0.185081 0.50809,0.230475 0.64898,0.137359 0.1385,-0.0908 0.60239,-0.324185 0.60239,-0.324185 0,0 -0.0489,-0.555839 -0.23281,-0.650683 -0.18506,-0.09196 -0.46389,-0.37074 -0.32304,-0.507513 0.13738,-0.140272 0.41502,-0.417909 0.55584,-0.372511 0.13619,0.04656 0.46443,0.649527 0.41618,0.788034 -0.0448,0.138523 0,0.186834 0.1868,0.694925 0.18335,0.513332 0.27763,0.419644 0.0448,0.513332 -0.23162,0.09021 -0.4627,0.37074 -0.60355,0.462693 -0.0306,0.02151 -0.0354,0.03488 -0.0306,0.04365 -0.0339,-0.01106 -0.12277,-0.02736 -0.33871,-0.04365 -0.60532,-0.04656 -0.46504,-0.324192 -0.60532,-0.04656 -0.13674,0.277619 -0.27763,0.509283 -0.27763,0.509283 l -0.32244,0.138519 c 0,0 -0.23336,0.740901 -0.1868,0.971977 l 0.0454,0.235719 c 0,0 0.46385,-0.882915 0.60413,-0.882915 0.13678,0 0.13678,0.231647 0.32419,0.09196 0.1874,-0.138518 0.37305,-0.04423 0.37305,-0.04423 0,0 0.27762,-0.140857 0.22991,0.228722 -0.0425,0.37074 -0.0425,0.417331 0.092,0.792734 0.1426,0.368426 0.51333,0.554681 0.65184,0.693189 0.13853,0.138526 0.32244,0.231647 0.41617,0.324189 0.0931,0.09196 0.13851,-0.417295 0.0931,-0.788071 -0.0483,-0.370739 -0.23223,-0.651839 0.1839,-0.511018 z m -3.2442,5.610795 c 0.51333,0.278787 0.83347,0.419066 1.2508,0.557574 0.41965,0.138515 0.83343,-0.278791 0.9277,-0.184503 0.092,0.09137 0.51106,-0.325934 0.51106,-0.325934 0,0 0.32243,-0.463885 0.27762,-0.601237 -0.0466,-0.14201 -0.0937,-0.558151 -0.18685,-0.418487 -0.0902,0.137358 -0.97313,0.648948 -1.15707,0.693768 -0.1839,0.04657 -0.64891,-0.137937 -1.06624,-0.137937 -0.41788,0 -1.4376,-0.325348 -1.579,-0.186244 -0.13447,0.140846 -0.55468,0.694924 -0.50928,0.928891 0.0477,0.231647 0,0.37074 0,0.511597 0,0.138523 -0.13854,0.786878 -0.13854,0.602394 l -0.64837,1.712299 c 0,0 0.5087,1.300824 0.46446,1.533056 -0.0489,0.230483 -0.14084,1.530707 0,1.389271 0.14085,-0.140846 0.83228,-0.231643 0.83228,-0.231643 0,0 0.23456,-0.834625 0.18915,-1.204786 -0.0477,-0.37074 -0.46677,-1.530707 -0.096,-1.437597 0.37367,0.09312 0.7438,0.555838 0.7438,0.555838 0,0 -0.27934,0.281115 -0.18626,0.465621 0.0931,0.184502 0.41734,0.416138 0.37194,0.833432 -0.0466,0.417295 0.13849,0.60355 0.13849,0.462693 0,-0.138519 0.46446,0.09312 0.51102,0.186248 0.0394,0.08323 0.47841,-0.304981 0.54651,-0.301486 0.006,-0.138518 0.0745,-0.707141 -0.0386,-0.857324 -0.14025,-0.185081 -0.14025,-0.462693 -0.46154,-0.833433 -0.3271,-0.374824 0.092,-0.464463 -0.23341,-0.885264 -0.32419,-0.414403 -0.46269,-0.275874 -0.32419,-0.414403 0.13738,-0.140268 0.41791,-0.232221 0.64956,-0.371318 0.22931,-0.139683 0.4161,-0.509284 0.4161,-0.509284 0.0466,-0.138519 0.14084,-0.09196 -0.23046,-0.185081 -0.37074,-0.09313 -0.69724,-0.187412 -0.92832,0.09312 -0.2305,0.276459 -0.46273,0.323025 -0.46273,0.323025 l -0.18509,0.04656 c -0.18506,0.04656 -0.13969,-0.277623 -0.27878,-0.324185 -0.14144,-0.0454 -0.14144,-0.09196 -0.23162,-0.416138 -0.0937,-0.325345 0,-0.835782 0.14084,-0.930663 0.13734,-0.09138 0.46038,-0.41733 0.97082,-0.138522 z m 1.20421,5.42501 c 0.006,-0.01572 0,-0.02154 -0.008,-0.0227 0,0.03145 0,0.04947 0.008,0.0227 z m 18.17518,0 c -0.0443,-0.278786 -0.0931,-0.602393 -0.22816,-0.833468 -0.1426,-0.231647 -3.15749,-1.81065 -3.52823,-1.949194 -0.37074,-0.138522 -2.31353,-0.74148 -2.31353,-0.74148 0,0 -0.93063,0.37074 -0.93063,0.511019 0,0.138519 -0.46446,0.648948 -0.65072,0.835782 -0.18331,0.18392 -0.13794,0.369583 -0.41556,0.324185 -0.27937,-0.04656 -0.32299,0 -0.46678,-0.139686 -0.13443,-0.138519 -0.27587,-0.605285 -0.46092,-0.742058 -0.18685,-0.138519 -0.55645,-0.324185 -0.46678,-0.694925 0.0954,-0.370739 0.23163,-0.880023 -0.0454,-0.880023 -0.27703,0 -0.69319,0.18683 -0.78691,0.04423 -0.0931,-0.136191 -0.6478,-0.08963 -0.6478,-0.08963 l -1.15761,0.324182 -0.14375,0.04656 c 0,0 0.51214,0.972554 0.83867,0.878866 0.32419,-0.09138 0.92539,0.649527 0.92539,0.649527 0,0 -0.18394,0.418487 -0.092,0.556995 0.092,0.138522 0.46388,0.835204 0.46388,0.835204 l 0.7409,-0.04656 0.74152,0.324182 1.99517,0.648948 0.55876,0.646635 0.32419,1.394512 c 0,0 -0.83698,0.554682 -0.78923,0.786877 0.0454,0.232225 1.06686,-0.04481 1.06686,-0.04481 l 0.83343,0.416138 1.01738,0.509283 1.16228,0.04481 0.69319,-0.786878 c 0,0 1.01853,-0.880023 1.01853,-0.694346 0,0.185663 0.9295,0.555839 1.0692,0.973711 0.14144,0.417295 0.97429,1.161124 0.97429,1.161124 0,0 1.15708,0.37074 1.29736,0.417294 0.13734,0.04307 0.46443,0.09196 0.79038,0.183921 0.32419,0.09254 -0.32649,-0.83636 -0.32649,-0.83636 0,0 -1.02146,-0.602394 -1.06686,-0.834626 -0.0454,-0.232224 -0.88002,-0.925421 -0.83347,-1.157653 0.0454,-0.231643 -0.37367,-0.509284 -0.18565,-0.509284 0.18565,0 0.926,-0.09196 0.83401,-0.233967 -0.092,-0.136191 -0.60236,-1.019109 -0.83401,-1.019109 -0.23106,-0.0014 -0.926,-0.0014 -0.97487,-0.279944 z m 1.57784,15.671408 c 0,0 -0.50929,-0.229896 -0.55584,-0.137354 -0.046,0.09312 -0.23337,-0.88118 -0.23337,-0.88118 l 0.0931,-0.509284 c 0,0 -1.39278,-1.764095 -1.43525,-1.62266 -0.0507,0.138523 -0.51218,-1.437597 -0.51218,-1.437597 l -0.13793,-1.715227 -0.32479,-1.020844 -0.83343,0.09312 -0.18625,-1.670408 -0.46678,-1.576104 -0.22931,-0.09196 -0.46443,1.065086 c 0,0 -0.23166,1.485309 -0.32538,1.995171 -0.0931,0.509284 -0.13849,1.252498 -0.4161,1.716384 -0.27878,0.463885 -0.92835,1.574369 -0.92835,1.574369 0,0 -0.74206,0 -0.83578,-0.138518 -0.0919,-0.138523 -0.92539,-0.556995 -0.92539,-0.556995 l -0.51214,-0.787456 -0.83173,-0.647792 c 0,0 -0.56104,-0.697274 -0.60532,-0.650683 -0.0448,0.04598 0.42022,-0.647792 0.55468,-0.74148 0.14375,-0.09196 0.18681,-0.554645 0.18681,-0.554645 l 0.74209,-0.604707 c 0,0 0.13909,-0.232225 0,-0.369583 -0.13969,-0.140265 -0.13969,-0.372475 -0.32419,-0.420222 -0.18625,-0.04539 -1.25307,0.466777 -1.25307,0.466777 l -0.88003,-0.419066 c 0,0 -0.65068,-0.325352 -0.78688,-0.556995 -0.13968,-0.230483 -0.51217,-0.369583 -0.60412,-0.277623 -0.0931,0.09312 0,0.555839 0,0.555839 0,0 0.1903,0.408583 0.25724,0.536031 -0.085,-0.07218 -0.39637,0.161221 -0.39637,0.161221 l -0.88114,0.09021 -0.55761,0.509862 -0.41729,0.789805 -0.27704,0.556417 c 0,0 0.23047,0.37074 0.13854,0.323603 -0.0931,-0.04598 -1.34561,0.325353 -1.34561,0.325353 0,0 -0.32653,-0.694925 -0.46508,-0.834047 -0.13849,-0.140265 -0.55464,-0.371319 -0.7409,-0.371319 -0.1839,0 -0.64837,0.417873 -0.64837,0.417873 l -0.18331,0.972555 -0.69728,-0.185081 -0.60412,1.019688 -0.59716,0.233393 -0.32884,0.694346 -0.1839,-0.739745 -0.69554,0.647792 -0.23337,1.063929 c 0,0 -0.88118,0.836361 -0.97433,1.021459 -0.0919,0.183921 -2.04227,0.882915 -2.04227,0.882915 l -1.24845,0.416138 c 0,0 -0.64898,0.138523 -0.78864,0.138523 -0.13849,0 -1.34619,0.882336 -1.34619,0.882336 l -0.41386,0.416138 -0.13965,-0.370739 -0.51044,0.555838 v 1.159967 l -0.51044,0.693768 0.27878,1.065661 -0.41733,0.14085 -0.37074,0.27995 0.41791,0.83463 0.13853,1.52662 c 0,0 0.23102,0.46562 0.18565,0.74498 -0.046,0.2753 -0.23281,0.55465 -0.23281,0.73975 0,0.18508 0.13969,0.88002 0.13969,1.06508 0,0.18625 -0.41907,1.39452 -0.41907,1.39452 l -0.50754,0.83343 -0.41611,0.0466 c 0,0 0.0896,0.88176 0.22991,0.88176 0.1385,0 0.55758,0.18334 0.92654,0.32535 0.37251,0.13561 0.97433,-0.0931 1.11396,-0.14143 0.13853,-0.0466 1.15997,-0.60239 1.15997,-0.60239 0,0 0.60239,-0.41614 0.78691,-0.37074 0.18509,0.0466 1.02258,-0.092 1.15881,0 0.13965,0.0931 1.20594,0.0466 1.20594,0.0466 l 0.64779,-0.69435 1.76352,-0.78922 0.88234,-0.0931 2.12959,-0.60182 1.80892,0.1845 c 0,0 1.53186,1.11457 1.53186,1.02146 0,-0.092 0.32418,0.60355 0.32418,0.60355 l -0.0919,0.87887 c 0,0 0.50871,0.41729 0.55407,0.27878 0.0477,-0.13969 0.55877,-0.6955 0.69843,-0.83462 0.13559,-0.13852 0.557,-0.32302 0.88176,-0.55465 0.32244,-0.23281 0.4144,-0.3719 0.4144,-0.3719 0,0 -0.32303,0.92658 -0.46388,0.92658 -0.13854,0 -0.41907,0.27763 -0.55758,0.46389 -0.13853,0.18391 -0.36784,0.32593 -0.36784,0.41906 0,0.0902 0.27762,0.0902 0.41321,0 0.14144,-0.0931 0.37366,-0.37366 0.56165,-0.46677 0.18335,-0.092 0.27878,-0.0454 0.22932,0.18624 -0.0454,0.23165 -0.0454,0.46154 -0.22932,0.55469 -0.188,0.0931 -0.42022,0.23164 -0.74556,0.41906 -0.32128,0.18625 -0.5541,0.0448 -0.69435,0.18625 -0.13969,0.13968 0.092,0.27995 0.18506,0.37074 0.0931,0.0931 0.32709,0.37251 0.50928,0.0477 0.18391,-0.32535 0.42138,-0.55989 0.55758,-0.65011 0.13853,-0.0908 0.41733,-0.37366 0.41733,-0.14142 0,0.23222 0.14144,0.46677 0.1851,0.65361 0.0483,0.18333 -0.32304,0.55406 -0.27879,0.64602 0.0477,0.0931 0.51333,1.11341 0.51333,1.11341 0,0 0.27763,0.36843 0.60008,0.36843 0.32535,0 1.01854,0.23397 1.15939,0.28228 0.13619,0.0436 0.78923,0 0.88292,-0.18683 0.0931,-0.18625 0.64783,-0.557 0.60239,-0.41849 -0.0477,0.13968 0.0454,0.41849 0.18391,0.557 0.13853,0.13852 0.37074,0.51217 0.37074,0.51217 l 1.71638,-1.34738 c 0,0 1.29736,-0.27879 1.3433,-0.13852 0.0477,0.13852 0.87998,-0.92543 0.87998,-0.92543 l 2.64239,-3.24535 1.02435,-0.69728 0.74036,-1.06685 1.01853,-1.85721 0.55699,-2.0813 0.41788,-1.57726 -1.02027,-1.532478 -0.41498,-1.299631 z M 212.4309,114.47968 c 0,0 -0.64782,-0.4173 -0.74325,-0.55584 v -0.13969 l -0.46153,1.43586 -0.41618,1.53245 c 0,0 0.83228,0.0931 0.92543,0.13852 0.0931,0.0448 1.4853,-0.78745 1.53301,-0.97371 0.0454,-0.18625 0.97317,-1.71581 0.97317,-1.71581 0,0 -1.48241,0.32419 -1.81065,0.27821 z m 25.13274,-2.68833 -0.46443,-0.46677 c 0,0 0.0483,-0.6478 -0.0931,-0.6478 -0.13679,0 -0.37074,0.0466 -0.37074,0.0466 l 0.23341,-1.62501 -0.83871,-0.50809 -0.18275,2.50384 -0.60413,1.39393 -1.20247,0.46389 c 0,0 0.50928,0.50809 0.69438,0.50809 0.1839,0 -0.13969,0.55641 -0.13969,0.55641 l -0.78807,0.69608 c 0,0 -0.27647,-0.14026 -0.27647,-0.51101 0,-0.3719 -0.74379,0.37074 -0.74379,0.37074 l -0.50928,-0.32536 -1.3922,1.20363 -1.90029,0.97606 -4.45018,2.73723 0.6012,0.32418 c 0,0 0.55642,0.23165 0.60297,0.32535 0.0448,0.0908 1.39047,-0.60355 1.39047,-0.60355 l 1.53128,-1.11457 0.73917,-0.64779 c 0,0 1.34738,-0.37074 1.29967,-0.18508 -0.0442,0.18508 0.41733,-0.8806 0.41733,-0.8806 l 1.29847,-0.69551 0.78923,-0.78687 0.64783,0.18217 0.92769,-0.32418 1.57669,-1.01911 0.27762,-0.83636 0.51218,0.0495 0.97082,-0.69728 0.64894,-1.11283 -1.20301,0.6501 z M 50.70459,10.108107 c 0.37074,0.136191 0.601815,0.184498 1.391621,0.23106 0.788649,0.04424 0.881758,-0.04656 1.25192,0.09138 0.367848,0.137358 0.693768,0.374246 0.834047,0.04482 0.138522,-0.322439 0.324184,-0.322439 0.462692,-0.5087054 0.138519,-0.1850844 0,-0.3707398 0.231061,-0.4633072 0.231643,-0.09196 0.650105,0.3719325 0.650105,0.3719325 0,0 -0.511019,0.3247601 -0.279372,0.3690051 0.23106,0.04831 0.880601,0.186248 1.2071,0.231064 0.324766,0.0483 0.04656,0.139097 0.602971,0.190315 0.555261,0.04366 0.787456,-0.05122 1.481839,-0.05122 0.696081,0 1.115725,-0.321853 1.3468,-0.231054 0.231065,0.09196 1.018532,0.09196 1.249607,0.04714 0.231646,-0.04714 0.790962,-0.5552603 0.557573,-0.5552603 -0.233385,0 -1.113412,-0.2333922 -1.483573,-0.2787904 -0.370161,-0.04598 -1.532442,-0.092535 -1.80718,0.04598 -0.280529,0.1396862 -0.604707,0.2333886 -0.789805,0.1396862 -0.185081,-0.092542 0.789805,-0.8334325 1.437596,-0.7414795 0.650105,0.092549 1.62266,-0.091953 1.946845,-0.045973 0.324189,0.045973 1.115147,0.1850771 1.115147,0.1850771 0,0 0.183338,-0.092539 0.229319,-0.2310572 0.04714,-0.1391042 0.0937,-0.2782048 0.0937,-0.2782048 l 0.464464,0.4167162 c 0,0 3.058521,-1.2507632 3.199343,-1.4841518 0.1391,-0.2339705 2.083617,-0.8352036 2.36591,-0.7868776 0.277623,0.044234 2.176763,-0.7892272 2.503839,-0.6506832 0.320112,0.1391006 2.037641,-0.4149813 2.037641,-0.4149813 0,0 1.253655,-0.2793687 1.531864,-0.2793687 0.27879,0 0.416716,-0.3236029 0,-0.2776228 -0.418488,0.04598 -3.897159,0.04598 -4.72958,0 -0.836938,-0.04598 -2.875772,-0.00145 -3.199957,0.04598 -0.324767,0.046558 -2.181426,0.5564168 -2.968304,0.5110187 -0.789227,-0.047144 -3.337886,0.3224427 -3.476394,0.276459 -0.14085,-0.046562 -1.158232,-0.092539 -1.065086,-0.092539 0.09021,0 -1.347379,1.1593885 -1.579033,0.8334325 -0.23106,-0.3241813 0,-0.5558385 -0.23106,-0.3241813 -0.231065,0.2316428 -0.185667,1.299053 -0.185667,1.299053 0.277623,0.1862482 0.880602,0.8346253 1.299053,0.5569952 0.414982,-0.2787868 0.647792,-0.1391043 0.786878,-0.094288 0.137355,0.047144 -0.647792,0.6501048 -1.113412,0.6501048 -0.463307,0 -1.948001,0.5564169 -1.948001,0.5564169 0,0 -0.649527,-0.6029717 -0.788649,-0.6489482 -0.138515,-0.046562 -0.925422,-0.092539 -1.064508,-0.092539 -0.138522,0 -0.32477,-0.1385222 -0.37074,0.2782048 -0.04598,0.4167163 0.04597,1.0650867 -0.416716,0.9725548 -0.464464,-0.09312 -0.602393,0.09196 -0.835203,-0.045398 C 52.41964,9.7361885 52.977217,9.0406674 52.32477,8.9946909 51.675822,8.9487108 51.305661,8.4854072 50.934921,9.2257482 50.563603,9.9666493 50.334877,9.9666493 50.704442,10.108085 Z m -16.784314,2.872266 c -0.14085,0.23397 1.203052,0.32593 1.295005,0.141428 0.0972,-0.187408 0.930048,-0.04831 1.114569,-0.324767 0.18508,-0.278787 1.111062,-0.835782 1.250185,-0.74325 0.1391,0.0937 -0.277627,0.556416 -0.416717,0.60355 -0.139104,0.04598 0.466199,0.09138 -0.139104,0.557573 -0.601237,0.462693 -0.462114,0.88118 -0.462114,0.88118 0,0 -0.509862,0.231065 -0.139101,0.324185 0.37074,0.09312 1.065664,0.416716 1.065664,0.416716 0,0 0.04598,0.324182 0.04598,0.417295 0,0.09255 0.233388,0.37074 0.740901,0.04657 0.513332,-0.324771 1.531863,-0.694347 1.670985,-0.555839 0.138519,0.138519 0.464464,-0.04656 0.92947,-0.09312 0.461536,-0.04539 0.834047,-0.185081 0.834047,-0.185081 l 0.601815,0.09312 c 0.278787,0.138523 0.511597,-0.18508 0.977218,0.09196 0.460957,0.278208 1.108749,0.278208 1.108749,0.278208 0,0 0.650683,-0.509283 0.788649,-0.55526 0.139682,-0.04656 0.417294,-0.09254 0.278205,-0.417331 -0.138523,-0.325345 -0.64837,-0.834625 -0.509284,-0.930048 0.138522,-0.09196 0.462729,-0.185084 0.416716,-1.065086 -0.04598,-0.880023 0.09254,-0.739744 -0.139104,-0.694346 -0.231061,0.04657 -0.788649,0.324767 -0.788649,0.324767 l -0.18392,-0.04656 c -0.09196,0.27762 -0.510441,0.463271 -0.605864,0.74148 -0.09196,0.277619 -0.365498,0.416716 -0.365498,0.18508 0,-0.231642 -0.325935,-0.27879 -0.375403,-0.463885 -0.04307,-0.185666 -0.462693,-0.138519 -0.693768,-0.09254 -0.232225,0.04598 -0.882337,-0.417295 -1.114568,-0.231643 -0.229316,0.185666 -0.463886,-0.09196 -0.648949,-0.509284 -0.183338,-0.416716 -0.416716,-0.74325 -0.694924,-0.69843 -0.278205,0.04831 -1.9934,0 -1.9934,0 l -1.020302,0.09254 c 0,0 -0.55526,0.141432 -0.55526,0.420801 0,0.278205 -0.09312,0.463885 -0.37074,0.555838 -0.279951,0.09254 -2.319355,0.834011 -2.319355,0.834011 0,0 0.556995,0.367848 0.417872,0.60008 z m 14.558502,-1.111099 -0.509862,-0.09312 c 0,0 -0.04598,-0.37074 -0.184502,-0.37074 -0.143756,0 -0.557574,0.509862 -0.557574,0.509862 0,0 0.604129,0.231646 0.69666,0.417294 0.09254,0.185663 0.323599,0.416138 0.323599,0.556996 0,0.136776 1.52955,-0.464464 1.52955,-0.464464 l 0.836939,-0.417331 c 0,0 0.04307,0.09255 0.09254,-0.138522 0.04657,-0.231639 -0.09254,-0.416717 0,-0.463886 0.09138,-0.04597 0.462693,-0.647791 0.09138,-0.55526 -0.371318,0.0908 -1.160545,0 -1.530707,0.138522 -0.370739,0.139101 -0.832854,-0.18392 -0.786877,0.185077 0.04482,0.37074 -0.0011,0.695503 -0.0011,0.695503 z M 41.059284,9.7355957 c 0,0 0.185081,0.7886493 0.557574,0.5575733 0.370161,-0.23397 1.435248,0.557574 1.435248,0.647792 0,0.09545 0.370161,0.0483 0.370161,0.0483 l 1.625009,-0.558152 0.906807,-0.137944 c 0,0 0.855553,-0.0483 0.993483,0.04657 0.137358,0.09138 0.83636,-0.231065 0.83636,-0.231065 L 48.060967,9.6424716 47.457417,9.4573909 47.59827,8.9940837 c 0,0 -0.186826,-0.2782048 -0.602393,0.04598 -0.420222,0.3247669 -1.57784,0.9725553 -1.485887,0.8352036 0.09312,-0.1396825 -0.462114,0.045395 -0.694346,-0.2333922 -0.233389,-0.2770409 -0.556417,-0.3241813 -0.556417,-0.3241813 0,0 -0.651876,-0.2310644 -0.88118,-0.1385222 -0.23281,0.092538 0.416716,-0.4633073 0.416716,-0.4633073 0,0 0.139105,-0.5104403 -0.141432,-0.463271 -0.275291,0.047144 -2.548659,0.5564168 -2.548659,0.5564168 0,0 -0.973712,0.5558386 -1.158232,0.416138 -0.185081,-0.1385223 -0.880024,0.092542 -0.880024,0.092542 l 0.463308,0.2782012 c 0.138526,-0.1391006 1.52955,0.1396898 1.52955,0.1396898 z M 51.399298,7.835306 c 0.138522,0.044823 1.252498,0.3695831 1.391621,0.4167163 0.138525,0.047148 0.557573,0.1391078 0.739744,0.093124 0.185081,-0.045977 0.927735,-0.4161379 0.651262,-0.5558386 C 53.903141,7.6507856 53.021958,7.4616313 52.836281,7.3679289 52.6512,7.2759723 51.954522,7.2323163 51.954522,7.2323163 l -0.417294,0.090214 c -0.09138,0.1391042 -0.276463,0.4673555 -0.137944,0.5127536 z m -4.451985,0.7880705 c 0.188576,-0.091957 0.83636,-0.3707398 0.83636,-0.3707398 L 48.337162,7.789944 48.524578,7.5553916 c 0,0 -0.416717,-0.3684265 -0.602394,-0.2322283 -0.18508,0.1391042 -1.161701,0.5575734 -1.161701,0.5575734 l -0.04598,0.3247669 -0.760708,0.3259307 c 0,0 0.806685,0.1844988 0.993482,0.091957 z m 8.34806,-0.1385223 c 0.182749,0.046566 0.739744,0.046566 0.786299,-0.09312 0.04598,-0.1391006 -0.04598,-1.115147 -0.04598,-1.115147 0,0 -0.187408,-0.275877 -0.417909,-0.2298969 -0.231639,0.04598 -0.972554,0.4149813 -0.972554,0.4149813 -0.04715,0.1408464 0.462692,0.9766391 0.650104,1.023194 z M 43.584377,57.898748 c -0.03199,-0.103017 -0.55526,-0.273546 -0.832854,-0.273546 -0.278205,0 -1.287414,-0.976639 -1.354933,-1.185593 -0.07217,-0.208944 -2.330416,-0.763601 -2.330416,-0.763601 0,0 -2.469502,-0.139686 -2.469502,-0.207779 0,-0.07276 -1.183244,0.938216 -1.183244,0.938216 v 0.103599 c 0,0 0.101853,0.486007 0.141428,0.590755 0.0326,0.103595 0.798517,-0.557573 0.867807,-0.834625 0.06926,-0.277045 0.625092,-0.348634 0.7636,-0.418488 0.141432,-0.06752 0.208362,0.281111 0.348048,0.281111 0.140846,0 0.766528,0.207195 0.766528,0.207195 l 1.25192,0.41733 0.486585,0.451054 c 0,0 0.207779,1.110485 0.207779,1.25192 0,0.140268 0.939374,0.06752 0.939374,0.06752 l 1.842674,-0.16995 c -3.28e-4,-3.29e-4 0.59249,-0.350376 0.555261,-0.455138 z m -0.06693,2.330994 c 0.1717,0.06926 0.449319,-0.03434 0.590176,-0.03434 0.140847,0 0.59249,-0.104177 0.59249,-0.104177 0,0 0.138522,0.313125 0.138522,0.417873 0,0.102435 0.729263,-0.03611 0.729263,-0.140847 0,-0.104766 0.174024,-0.3818 0.174024,-0.3818 l 0.867806,-0.173442 c 0,0 1.184401,0.03488 1.287993,0.03488 0.104766,0 0.174606,-0.208361 -0.03611,-0.590754 -0.206612,-0.383572 -0.800288,-0.455139 -0.939374,-0.733926 -0.139097,-0.27588 -0.798516,-0.09953 -0.973133,0 -0.173442,0.105342 -1.145436,-0.239793 -1.42538,-0.239793 -0.275881,0 0,0.312543 0,0.312543 l -0.104766,1.008049 h -1.146593 l -0.03549,0.103599 c 0,0 -0.31371,0.104763 -0.31371,0.31371 0.0011,0.208362 0.418487,0.1391 0.594225,0.208362 z" /></g><g
     id="layer3"
     transform="translate(110.54292,-39.740417)"><path
       id="path2"
       style="fill:#fb0000;fill-opacity:1;stroke:none;stroke-width:2.54;stroke-linejoin:round;stroke-dasharray:none;stroke-opacity:1;paint-order:markers stroke fill"
       d="m 22.364505,79.314136 c 0,7.014016 -12.6999992,21.695834 -12.6999992,21.695834 0,0 -12.7,-14.681818 -12.7,-21.695834 0,-7.014016 5.685984,-12.7 12.7,-12.7 7.0140162,10e-7 12.6999992,5.685984 12.6999992,12.7 z" /><circle
       style="fill:#fbfbfb;fill-opacity:1;stroke:none;stroke-width:2.54;stroke-linejoin:round;stroke-dasharray:none;stroke-opacity:1;paint-order:markers stroke fill"
       id="path3"
       cx="9.6645041"
       cy="77.894196"
       r="6.3499999" /></g><g
     id="g3"
     transform="translate(-1.7402464)"><g
       id="g9"
       clip-path="none"
       transform="matrix(2.1485482,0,0,2.1485482,-5.4611478,-34.045586)"><path
         id="path4"
         style="fill:#fbfbfb;fill-opacity:1;stroke:none;stroke-width:2.54;stroke-linejoin:round;stroke-dasharray:none;stroke-opacity:1;paint-order:markers stroke fill"
         d="m 12.841076,29.095381 a 12.7,12.7 0 0 0 -12.69999934,12.7 12.7,12.7 0 0 0 12.69999934,12.7 12.7,12.7 0 0 0 12.7,-12.7 12.7,12.7 0 0 0 -12.7,-12.7 z m 0.317294,26.837638 a 25.4,25.4 0 0 0 -25.4,25.4 25.4,25.4 0 0 0 25.4,25.400001 25.4,25.4 0 0 0 25.399999,-25.400001 25.4,25.4 0 0 0 -25.399999,-25.4 z" /></g><g
       id="g11"
       clip-path="none"
       transform="matrix(-2.1485482,0,0,2.1485482,248.94165,-34.045586)"><path
         id="path10"
         style="fill:#fbfbfb;fill-opacity:1;stroke:none;stroke-width:2.54;stroke-linejoin:round;stroke-dasharray:none;stroke-opacity:1;paint-order:markers stroke fill"
         d="m 12.841076,29.095381 a 12.7,12.7 0 0 0 -12.69999934,12.7 12.7,12.7 0 0 0 12.69999934,12.7 12.7,12.7 0 0 0 12.7,-12.7 12.7,12.7 0 0 0 -12.7,-12.7 z m 0.317294,26.837638 a 25.4,25.4 0 0 0 -25.4,25.4 25.4,25.4 0 0 0 25.4,25.400001 25.4,25.4 0 0 0 25.399999,-25.400001 25.4,25.4 0 0 0 -25.399999,-25.4 z" /></g></g></svg>
