<?xml version="1.0" encoding="UTF-8" standalone="no"?>
<!-- Created with Inkscape (http://www.inkscape.org/) -->

<svg
   width="3in"
   height="3in"
   viewBox="0 0 76.199998 76.2"
   version="1.1"
   id="svg1"
   inkscape:export-filename="../git/kaios-gps-location-sharer/assets/icons/kaios_112.png"
   inkscape:export-xdpi="37.333332"
   inkscape:export-ydpi="37.333332"
   inkscape:version="1.3.2 (091e20e, 2023-11-25)"
   sodipodi:docname="icon.svg"
   xmlns:inkscape="http://www.inkscape.org/namespaces/inkscape"
   xmlns:sodipodi="http://sodipodi.sourceforge.net/DTD/sodipodi-0.dtd"
   xmlns:xlink="http://www.w3.org/1999/xlink"
   xmlns="http://www.w3.org/2000/svg"
   xmlns:svg="http://www.w3.org/2000/svg">
  <sodipodi:namedview
     id="namedview1"
     pagecolor="#ffffff"
     bordercolor="#000000"
     borderopacity="0.25"
     inkscape:showpageshadow="2"
     inkscape:pageopacity="0.0"
     inkscape:pagecheckerboard="0"
     inkscape:deskcolor="#d1d1d1"
     inkscape:document-units="in"
     inkscape:zoom="2.1428502"
     inkscape:cx="149.80049"
     inkscape:cy="139.06712"
     inkscape:window-width="1728"
     inkscape:window-height="1051"
     inkscape:window-x="0"
     inkscape:window-y="38"
     inkscape:window-maximized="0"
     inkscape:current-layer="svg1" />
  <defs
     id="defs1">
    <clipPath
       clipPathUnits="userSpaceOnUse"
       id="clipPath9">
      <use
         x="0"
         y="0"
         xlink:href="#g8"
         id="use9" />
    </clipPath>
  </defs>
  <g
     inkscape:groupmode="layer"
     id="layer2"
     inkscape:label="Layer 2"
     sodipodi:insensitive="true">
    <rect
       style="fill:#df83df;fill-opacity:1;stroke:none;stroke-width:2.54;stroke-linejoin:round;stroke-dasharray:none;stroke-opacity:1;paint-order:markers stroke fill"
       id="rect2-9"
       width="59.689999"
       height="59.689999"
       x="8.2550001"
       y="8.2550001"
       rx="7.6199999"
       ry="7.6199999" />
  </g>
  <g
     inkscape:groupmode="layer"
     id="layer3"
     inkscape:label="Layer 3"
     sodipodi:insensitive="true">
    <path
       id="path2"
       style="fill:#fb0000;fill-opacity:1;stroke:none;stroke-width:2.54;stroke-linejoin:round;stroke-dasharray:none;stroke-opacity:1;paint-order:markers stroke fill"
       d="M 50.799999,23.089409 C 50.799999,30.103425 38.1,44.785242 38.1,44.785242 c 0,0 -12.7,-14.681817 -12.7,-21.695833 0,-7.014016 5.685984,-12.7 12.7,-12.7 7.014016,10e-7 12.699999,5.685984 12.699999,12.7 z"
       sodipodi:nodetypes="scsss" />
    <circle
       style="fill:#fbfbfb;fill-opacity:1;stroke:none;stroke-width:2.54;stroke-linejoin:round;stroke-dasharray:none;stroke-opacity:1;paint-order:markers stroke fill"
       id="path3"
       cx="38.099998"
       cy="21.669472"
       r="6.3499999" />
  </g>
  <g
     id="g9"
     clip-path="url(#clipPath9)"
     sodipodi:insensitive="true">
    <g
       inkscape:label="Clip"
       id="g8">
      <rect
         style="fill:none;fill-opacity:1;stroke:none;stroke-width:2.54;stroke-linejoin:round;stroke-dasharray:none;stroke-opacity:1;paint-order:markers stroke fill"
         id="rect2-9-1"
         width="59.689999"
         height="59.689999"
         x="8.2550001"
         y="8.2550001"
         rx="7.6199999"
         ry="7.6199999" />
    </g>
    <path
       id="path4"
       style="fill:#fbfbfb;fill-opacity:1;stroke:none;stroke-width:2.54;stroke-linejoin:round;stroke-dasharray:none;stroke-opacity:1;paint-order:markers stroke fill"
       d="m 12.841076,29.095381 a 12.7,12.7 0 0 0 -12.69999934,12.7 12.7,12.7 0 0 0 12.69999934,12.7 12.7,12.7 0 0 0 12.7,-12.7 12.7,12.7 0 0 0 -12.7,-12.7 z m 0.317294,26.837638 a 25.4,25.4 0 0 0 -25.4,25.4 25.4,25.4 0 0 0 25.4,25.400001 25.4,25.4 0 0 0 25.399999,-25.400001 25.4,25.4 0 0 0 -25.399999,-25.4 z" />
  </g>
  <g
     id="g11"
     clip-path="url(#clipPath9)"
     transform="matrix(-1,0,0,1,76.199999,0)"
     sodipodi:insensitive="true">
    <g
       inkscape:label="Clip"
       id="g10">
      <rect
         style="fill:none;fill-opacity:1;stroke:none;stroke-width:2.54;stroke-linejoin:round;stroke-dasharray:none;stroke-opacity:1;paint-order:markers stroke fill"
         id="rect2-9-1-7"
         width="59.689999"
         height="59.689999"
         x="8.2550001"
         y="8.2550001"
         rx="7.6199999"
         ry="7.6199999" />
    </g>
    <path
       id="path10"
       style="fill:#fbfbfb;fill-opacity:1;stroke:none;stroke-width:2.54;stroke-linejoin:round;stroke-dasharray:none;stroke-opacity:1;paint-order:markers stroke fill"
       d="m 12.841076,29.095381 a 12.7,12.7 0 0 0 -12.69999934,12.7 12.7,12.7 0 0 0 12.69999934,12.7 12.7,12.7 0 0 0 12.7,-12.7 12.7,12.7 0 0 0 -12.7,-12.7 z m 0.317294,26.837638 a 25.4,25.4 0 0 0 -25.4,25.4 25.4,25.4 0 0 0 25.4,25.400001 25.4,25.4 0 0 0 25.399999,-25.400001 25.4,25.4 0 0 0 -25.399999,-25.4 z" />
  </g>
</svg>
